
<svg
   xmlns:dc="http://purl.org/dc/elements/1.1/"
   xmlns:cc="http://creativecommons.org/ns#"
   xmlns:rdf="http://www.w3.org/1999/02/22-rdf-syntax-ns#"
   xmlns:svg="http://www.w3.org/2000/svg"
   xmlns="http://www.w3.org/2000/svg"
   viewBox="0 0 682.66669 682.66669"
   height="100px"
   width="100px"
   xml:space="preserve"
   id="svg2"
   version="1.1"><metadata
     id="metadata8"><rdf:RDF><cc:Work
         rdf:about=""><dc:format>image/svg+xml</dc:format><dc:type
           rdf:resource="http://purl.org/dc/dcmitype/StillImage" /></cc:Work></rdf:RDF></metadata><defs
     id="defs6"><clipPath
       id="clipPath28"
       clipPathUnits="userSpaceOnUse"><path
         id="path26"
         d="M 0,31.097 H 512 V 480.903 H 0 Z" /></clipPath></defs><g
     transform="matrix(1.3333333,0,0,-1.3333333,0,682.66667)"
     id="g10"><g
       transform="scale(0.6826667,-0.8996129)"
       id="g12"><path
         id="path14"
         style="fill:#fffcfa;fill-opacity:1;fill-rule:nonzero;stroke:none"
         d="m 0,-534.567 h 750 v 500 H 0 Z" /></g><g
       transform="scale(0.6826667,-0.8996129)"
       id="g16"><g
         transform="translate(338.0193,-102.4065)"
         id="g18"><path
           id="path20"
           style="fill:#4d7ab2;fill-opacity:1;fill-rule:nonzero;stroke:none"
           d="M 0,0 2.501,-0.301 2.602,0.2 0.15,1.084 Z" /></g></g><g
       id="g22"><g
         clip-path="url(#clipPath28)"
         id="g24"><g
           transform="scale(0.6826667,-0.8996129)"
           id="g30"><g
             transform="translate(604.085,-136.2437)"
             id="g32"><path
               id="path34"
               style="fill:#fee9dd;fill-opacity:1;fill-rule:nonzero;stroke:none"
               d="m 0,0 c 5.853,-21.417 8.994,-43.954 8.994,-67.228 0,-140.542 -113.932,-254.474 -254.474,-254.474 -140.542,0 -254.474,113.932 -254.474,254.474 0,23.274 3.142,45.811 8.994,67.228 z" /></g></g><g
           transform="scale(0.6826667,-0.8996129)"
           id="g36"><g
             transform="translate(74.2285,-136.2437)"
             id="g38"><path
               id="path40"
               style="fill:none;stroke:#ffa343;stroke-width:2;stroke-linecap:butt;stroke-linejoin:miter;stroke-miterlimit:10;stroke-dasharray:none;stroke-opacity:1"
               d="M 0,0 H 583.912" /></g></g><g
           transform="scale(0.6826667,-0.8996129)"
           id="g42"><g
             transform="translate(132.3853,-168.9243)"
             id="g44"><path
               id="path46"
               style="fill:#a5a451;fill-opacity:1;fill-rule:nonzero;stroke:none"
               d="m 0,0 c -2.792,0.97 -5.88,2.928 -8.68,5.026 3.159,-4.939 6.656,-10.887 6.656,-10.887 l 19.608,2.983 C 15.027,-6.714 0.64,-14.601 -6.181,-8.632 c -2.178,1.905 -4.3,4.865 -6.182,8.01 -0.771,-5.699 -2.027,-11.674 -4.053,-14.784 -4.583,-7.034 -23.548,-11.243 -23.548,-11.243 1.599,3.303 17.797,12.895 17.797,12.895 l 2.827,11.481 c -1.558,-2.387 -3.241,-4.544 -4.958,-6.046 -6.82,-5.968 -21.207,1.918 -23.765,5.755 l 19.609,-2.985 c 0,0 3.496,5.948 6.656,10.889 -2.801,-2.099 -5.888,-4.057 -8.681,-5.028 -7.673,-2.664 -15.666,12.79 -15.666,12.79 L -31.971,3.83 c 0,0 8.281,6.369 13.018,8.957 -0.217,0.533 -0.336,0.841 -0.336,0.841 0,0 0.683,-0.003 1.649,-0.186 0.492,0.217 0.911,0.362 1.228,0.406 1.577,0.216 2.458,0.018 2.945,-0.229 1.289,0.319 2.278,0.321 2.278,0.321 0,0 -0.093,-0.237 -0.262,-0.655 l 0.262,0.029 c 0,0 -0.012,-0.364 -0.04,-1.005 C -6.452,9.626 1.492,3.517 1.492,3.517 l 14.174,9.271 C 15.666,12.788 7.673,-2.664 0,0" /></g></g><g
           transform="scale(0.6826667,-0.8996129)"
           id="g48"><g
             transform="translate(131.9751,-158.2739)"
             id="g50"><path
               id="path52"
               style="fill:#ffa343;fill-opacity:1;fill-rule:nonzero;stroke:none"
               d="m 0,0 h -9.836 -9.986 -9.836 c 0,0 -1.705,11.58 6.394,21.35 h 3.442 9.986 3.442 C 1.705,11.58 0,0 0,0" /></g></g><g
           transform="scale(0.6826667,-0.8996129)"
           id="g54"><path
             id="path56"
             style="fill:#b2b75b;fill-opacity:1;fill-rule:nonzero;stroke:none"
             d="m 611.116,-429.966 h -63.341 v -9.949 h 63.341 z" /></g><g
           transform="scale(0.6826667,-0.8996129)"
           id="g58"><g
             transform="translate(405.9385,-96.1372)"
             id="g60"><path
               id="path62"
               style="fill:#b2b75b;fill-opacity:1;fill-rule:nonzero;stroke:none"
               d="M 0,0 32.696,12.853 89.6,2.475 58.486,-10.895 Z" /></g></g><g
           transform="scale(0.6826667,-0.8996129)"
           id="g64"><g
             transform="translate(438.6348,-83.2847)"
             id="g66"><path
               id="path68"
               style="fill:#a5a451;fill-opacity:1;fill-rule:nonzero;stroke:none"
               d="M 0,0 V 9.448 L 56.903,-2.426 c 0,0 2.515,-3.073 0,-7.952 z" /></g></g><g
           transform="scale(0.6826667,-0.8996129)"
           id="g70"><g
             transform="translate(408.4307,-95.1577)"
             id="g72"><path
               id="path74"
               style="fill:#fee9dd;fill-opacity:1;fill-rule:nonzero;stroke:none"
               d="M 0,0 V 8.873 L 30.204,21.321 V 11.873 Z" /></g></g><g
           transform="scale(0.6826667,-0.8996129)"
           id="g76"><g
             transform="translate(405.9385,-96.1372)"
             id="g78"><path
               id="path80"
               style="fill:#8b883c;fill-opacity:1;fill-rule:nonzero;stroke:none"
               d="m 0,0 v 0.979 l 31.803,12.605 v 6.674 L 0.268,7.81 v 1.276 l 32.428,13.215 v -8.363 -1.085 -0.232 z" /></g></g><g
           transform="scale(0.6826667,-0.8996129)"
           id="g82"><g
             transform="translate(312.3354,-447.0415)"
             id="g84"><path
               id="path86"
               style="fill:none;stroke:#668cce;stroke-width:1;stroke-linecap:butt;stroke-linejoin:miter;stroke-miterlimit:10;stroke-dasharray:none;stroke-opacity:1"
               d="m 0,0 c 0,8.544 -6.927,15.471 -15.471,15.471 -8.545,0 -15.471,-6.927 -15.471,-15.471 0,-8.545 6.926,-15.472 15.471,-15.472 C -6.927,-15.472 0,-8.545 0,0 Z" /></g></g><g
           transform="scale(0.6826667,-0.8996129)"
           id="g88"><g
             transform="translate(481.8652,-447.0415)"
             id="g90"><path
               id="path92"
               style="fill:none;stroke:#b2b75b;stroke-width:1;stroke-linecap:butt;stroke-linejoin:miter;stroke-miterlimit:10;stroke-dasharray:4;stroke-dashoffset:0;stroke-opacity:1"
               d="m 0,0 c 0,10.288 -8.34,18.628 -18.628,18.628 -10.289,0 -18.629,-8.34 -18.629,-18.628 0,-10.289 8.34,-18.629 18.629,-18.629 C -8.34,-18.629 0,-10.289 0,0 Z" /></g></g><g
           transform="scale(0.6826667,-0.8996129)"
           id="g94"><g
             transform="translate(587.8037,-408.0132)"
             id="g96"><path
               id="path98"
               style="fill:#ffc692;fill-opacity:1;fill-rule:nonzero;stroke:none"
               d="m 0,0 c 0,4.616 -3.742,8.358 -8.358,8.358 -4.617,0 -8.359,-3.742 -8.359,-8.358 0,-4.616 3.742,-8.358 8.359,-8.358 C -3.742,-8.358 0,-4.616 0,0" /></g></g><g
           transform="scale(0.6826667,-0.8996129)"
           id="g100"><g
             transform="translate(388.9863,-462.8701)"
             id="g102"><path
               id="path104"
               style="fill:#ffa343;fill-opacity:1;fill-rule:nonzero;stroke:none"
               d="m 0,0 c 0,6.202 -5.028,11.23 -11.23,11.23 -6.203,0 -11.231,-5.028 -11.231,-11.23 0,-6.203 5.028,-11.23 11.231,-11.23 C -5.028,-11.23 0,-6.203 0,0 M 10.675,-8.705 C 10.476,-9.222 10.26,-9.73 10.026,-10.229 l 5.142,-10.083 -1.755,-1.547 -4.386,-3.867 -1.755,-1.546 -8.335,5.668 c -0.979,-0.488 -1.995,-0.912 -3.043,-1.267 l -2.451,-9.556 h -2.339 -5.847 -2.339 l -2.445,9.537 c -1.069,0.358 -2.105,0.788 -3.101,1.286 l -8.337,-5.668 -1.754,1.546 -4.386,3.867 -1.755,1.547 5.142,10.083 c -0.232,0.494 -0.445,0.997 -0.643,1.509 l -9.704,2.488 v 2.339 5.847 2.339 l 8.994,2.307 c 0.217,0.765 0.471,1.515 0.76,2.248 l -5.204,10.204 1.755,1.547 4.386,3.867 1.754,1.547 7.597,-5.166 c 1.287,0.753 2.648,1.392 4.074,1.9 l 2.158,8.42 h 2.339 5.848 2.338 l 2.039,-7.948 c 1.699,-0.483 3.323,-1.142 4.846,-1.966 l 6.999,4.76 1.754,-1.547 4.387,-3.867 1.754,-1.547 -4.492,-8.81 C 10.569,9.071 11.025,7.849 11.383,6.584 L 20.319,4.293 V 1.954 -3.893 -6.232 Z" /></g></g><g
           transform="scale(0.6826667,-0.8996129)"
           id="g106"><g
             transform="translate(170.812,-364.0649)"
             id="g108"><path
               id="path110"
               style="fill:none;stroke:#b2b75b;stroke-width:1;stroke-linecap:butt;stroke-linejoin:miter;stroke-miterlimit:10;stroke-dasharray:4;stroke-dashoffset:0;stroke-opacity:1"
               d="m 0,0 c 0,16.104 -13.055,29.16 -29.16,29.16 -16.104,0 -29.159,-13.056 -29.159,-29.16 0,-16.104 13.055,-29.16 29.159,-29.16 C -13.055,-29.16 0,-16.104 0,0 Z" /></g></g><g
           transform="scale(0.6826667,-0.8996129)"
           id="g112"><g
             transform="translate(148.6187,-363.6958)"
             id="g114"><path
               id="path116"
               style="fill:none;stroke:#a5a451;stroke-width:1;stroke-linecap:butt;stroke-linejoin:miter;stroke-miterlimit:10;stroke-dasharray:none;stroke-opacity:1"
               d="m 0,0 c 0,3.639 -2.95,6.589 -6.589,6.589 -3.639,0 -6.589,-2.95 -6.589,-6.589 0,-3.639 2.95,-6.589 6.589,-6.589 C -2.95,-6.589 0,-3.639 0,0 Z M 6.263,-5.107 C 6.146,-5.41 6.02,-5.709 5.882,-6.001 l 3.017,-5.916 -1.029,-0.908 -2.574,-2.268 -1.029,-0.908 -4.891,3.326 c -0.574,-0.287 -1.17,-0.535 -1.785,-0.743 l -1.438,-5.607 h -1.372 -3.431 -1.372 l -1.435,5.595 c -0.627,0.21 -1.235,0.463 -1.82,0.755 l -4.891,-3.326 -1.029,0.908 -2.574,2.268 -1.029,0.908 3.017,5.916 c -0.136,0.289 -0.261,0.585 -0.378,0.885 l -5.693,1.46 v 1.372 3.431 1.372 l 5.277,1.353 c 0.128,0.45 0.276,0.89 0.446,1.319 l -3.053,5.988 1.029,0.907 2.573,2.269 1.03,0.908 4.457,-3.032 c 0.755,0.443 1.554,0.818 2.39,1.116 l 1.267,4.94 h 1.372 3.431 1.372 l 1.196,-4.663 c 0.997,-0.284 1.95,-0.671 2.843,-1.154 l 4.107,2.793 1.029,-0.908 2.573,-2.269 1.03,-0.907 -2.636,-5.17 C 6.201,5.323 6.468,4.605 6.678,3.864 L 11.921,2.519 V 1.147 -2.284 -3.656 Z" /></g></g><g
           transform="scale(0.6826667,-0.8996129)"
           id="g118"><g
             transform="translate(279.1519,-94.4507)"
             id="g120"><path
               id="path122"
               style="fill:#ffc692;fill-opacity:1;fill-rule:nonzero;stroke:none"
               d="m 0,0 49.079,-9.874 c 0,0 4.836,3.16 3.102,9.805 L -6.417,12.252 Z" /></g></g><g
           transform="scale(0.6826667,-0.8996129)"
           id="g124"><g
             transform="translate(328.231,-104.3247)"
             id="g126"><path
               id="path128"
               style="fill:#ffa343;fill-opacity:1;fill-rule:nonzero;stroke:none"
               d="M 0,0 9.958,1.589 10.319,3.21 3.102,9.805 C 3.102,9.805 4.803,3.602 0,0" /></g></g><g
           transform="scale(0.6826667,-0.8996129)"
           id="g130"><g
             transform="translate(282.4731,-84.2495)"
             id="g132"><path
               id="path134"
               style="fill:#b2b75b;fill-opacity:1;fill-rule:nonzero;stroke:none"
               d="m 0,0 -15.343,3.202 c 0,0 -5.266,-2.53 -2.997,-10.066 l 15.315,-3.4 c 0,0 4.491,3.596 3.025,10.264" /></g></g><g
           transform="scale(0.6826667,-0.8996129)"
           id="g136"><g
             transform="translate(267.1304,-81.0474)"
             id="g138"><path
               id="path140"
               style="fill:#8b883c;fill-opacity:1;fill-rule:nonzero;stroke:none"
               d="m 0,0 c 0,0 -5.267,-2.53 -2.998,-10.066 0,0 4.669,3.661 2.998,10.066" /></g></g><g
           transform="scale(0.6826667,-0.8996129)"
           id="g142"><g
             transform="translate(226.2295,-453.3013)"
             id="g144"><path
               id="path146"
               style="fill:none;stroke:#962853;stroke-width:1;stroke-linecap:butt;stroke-linejoin:miter;stroke-miterlimit:10;stroke-dasharray:none;stroke-opacity:1"
               d="M 0,0 C 0,12.23 -9.915,22.145 -22.145,22.145 -34.375,22.145 -44.29,12.23 -44.29,0 c 0,-12.23 9.915,-22.146 22.145,-22.146 C -9.915,-22.146 0,-12.23 0,0 Z" /></g></g><g
           transform="scale(0.6826667,-0.8996129)"
           id="g148"><g
             transform="translate(211.3442,-453.3013)"
             id="g150"><path
               id="path152"
               style="fill:none;stroke:#962853;stroke-width:1;stroke-linecap:butt;stroke-linejoin:miter;stroke-miterlimit:10;stroke-dasharray:none;stroke-opacity:1"
               d="m 0,0 c 0,12.23 -3.25,22.145 -7.26,22.145 -4.01,0 -7.26,-9.915 -7.26,-22.145 0,-12.23 3.25,-22.146 7.26,-22.146 C -3.25,-22.146 0,-12.23 0,0 Z" /></g></g><g
           transform="scale(0.6826667,-0.8996129)"
           id="g154"><g
             transform="translate(184.1675,-462.9922)"
             id="g156"><path
               id="path158"
               style="fill:none;stroke:#962853;stroke-width:1;stroke-linecap:butt;stroke-linejoin:miter;stroke-miterlimit:10;stroke-dasharray:none;stroke-opacity:1"
               d="M 0,0 C 0,0 19.083,7.725 39.834,0" /></g></g><g
           transform="scale(0.6826667,-0.8996129)"
           id="g160"><g
             transform="translate(224.0015,-443.1802)"
             id="g162"><path
               id="path164"
               style="fill:none;stroke:#962853;stroke-width:1;stroke-linecap:butt;stroke-linejoin:miter;stroke-miterlimit:10;stroke-dasharray:none;stroke-opacity:1"
               d="M 0,0 C 0,0 -19.083,-7.725 -39.834,0" /></g></g><g
           transform="scale(0.6826667,-0.8996129)"
           id="g166"><g
             transform="translate(181.9395,-453.3013)"
             id="g168"><path
               id="path170"
               style="fill:none;stroke:#962853;stroke-width:1;stroke-linecap:butt;stroke-linejoin:miter;stroke-miterlimit:10;stroke-dasharray:none;stroke-opacity:1"
               d="M 0,0 H 44.29" /></g></g><g
           transform="scale(0.6826667,-0.8996129)"
           id="g172"><g
             transform="translate(115.521,-268.2124)"
             id="g174"><path
               id="path176"
               style="fill:#668cce;fill-opacity:1;fill-rule:nonzero;stroke:none"
               d="M 0,0 C -1.083,1.163 -2.576,1.924 -4.476,2.283 V 3.08 c 0,1.311 -1.062,2.373 -2.373,2.373 -1.31,0 -2.372,-1.062 -2.372,-2.373 V 2.383 c -2.094,-0.249 -3.841,-0.789 -5.239,-1.62 -0.665,-0.395 -0.922,-1.231 -0.642,-1.95 l 0.274,-0.706 c 0.355,-0.911 1.43,-1.272 2.283,-0.794 0.006,0.004 0.013,0.008 0.02,0.012 0.677,0.378 1.455,0.697 2.333,0.956 0.877,0.259 1.767,0.389 2.671,0.389 1.103,0 2.037,-0.249 2.801,-0.747 0.719,-0.469 1.067,-0.88 1.107,-1.825 0.023,-0.566 -0.215,-1.12 -0.627,-1.507 -0.451,-0.422 -1.001,-0.766 -1.651,-1.03 -0.639,-0.259 -1.469,-0.535 -2.493,-0.828 -1.382,-0.398 -2.578,-0.878 -3.588,-1.435 -1.01,-0.559 -1.834,-1.313 -2.472,-2.263 -0.638,-0.95 -0.957,-2.137 -0.957,-3.558 0,-1.063 0.242,-2.038 0.728,-2.921 0.485,-0.884 1.189,-1.632 2.112,-2.243 0.924,-0.612 2.038,-1.03 3.34,-1.256 v -1.495 c 0,-1.311 1.062,-2.373 2.372,-2.373 1.311,0 2.373,1.062 2.373,2.373 v 1.515 c 1.13,0.212 2.117,0.538 2.961,0.976 0.181,0.094 0.349,0.188 0.507,0.281 0.789,0.47 1.06,1.486 0.662,2.314 -0.459,0.955 -1.639,1.319 -2.549,0.776 -0.53,-0.317 -1.056,-0.603 -1.351,-0.709 -0.725,-0.258 -1.453,-0.389 -2.183,-0.389 -1.13,0 -2.078,0.246 -2.842,0.738 -0.764,0.492 -1.146,1.204 -1.146,2.133 0,0.997 0.432,1.758 1.295,2.283 0.865,0.526 1.948,0.934 3.251,1.226 2.22,0.519 4.023,1.369 5.412,2.552 1.389,1.183 2.084,2.659 2.084,4.427 C 1.625,-2.602 1.083,-1.162 0,0" /></g></g><g
           transform="scale(0.6826667,-0.8996129)"
           id="g178"><g
             transform="translate(615.8682,-349.9653)"
             id="g180"><path
               id="path182"
               style="fill:#56183a;fill-opacity:1;fill-rule:nonzero;stroke:none"
               d="m 0,0 36.141,141.65 c 0.397,1.557 2.085,2.399 3.567,1.779 1.206,-0.504 1.86,-1.817 1.536,-3.083 L 5.173,-0.545 Z" /></g></g><g
           transform="scale(0.6826667,-0.8996129)"
           id="g184"><g
             transform="translate(583.6943,-385.105)"
             id="g186"><path
               id="path188"
               style="fill:#962853;fill-opacity:1;fill-rule:nonzero;stroke:none"
               d="m 0,0 18.572,2.968 c 10.77,1.721 19.255,10.098 21.114,20.845 v 0.001 C 41.374,33.579 37.254,43.438 29.12,49.1 L 8.431,63.5 Z" /></g></g><g
           transform="scale(0.6826667,-0.8996129)"
           id="g190"><g
             transform="translate(588.9648,-320.5962)"
             id="g192"><path
               id="path194"
               style="fill:#6e2444;fill-opacity:1;fill-rule:nonzero;stroke:none"
               d="m 0,0 c -3.861,0.822 -7.802,0.206 -11.502,-1.582 -8.294,-3.968 -15.435,-13.736 -18.061,-26.168 -2.512,-11.877 -0.287,-23.201 5.12,-30.279 2.78,-3.646 6.408,-6.175 10.653,-7.078 12.52,-2.654 25.757,9.768 29.573,27.75 C 19.59,-19.376 12.521,-2.654 0,0" /></g></g><g
           transform="scale(0.6826667,-0.8996129)"
           id="g196"><g
             transform="translate(613.7373,-374.561)"
             id="g198"><path
               id="path200"
               style="fill:#962853;fill-opacity:1;fill-rule:nonzero;stroke:none"
               d="m 0,0 12.615,0.435 c 5.327,0.183 9.666,4.338 10.08,9.653 0.367,4.711 -2.466,9.085 -6.917,10.675 L 5.049,24.596 Z" /></g></g><g
           transform="scale(0.6826667,-0.8996129)"
           id="g202"><g
             transform="translate(577.4629,-322.1782)"
             id="g204"><path
               id="path206"
               style="fill:#962853;fill-opacity:1;fill-rule:nonzero;stroke:none"
               d="m 0,0 c -8.294,-3.968 -15.435,-13.736 -18.062,-26.168 -2.511,-11.877 -0.286,-23.201 5.121,-30.279 9.053,2.485 24.943,8.464 28.367,20.413 C 19.34,-22.378 11.297,-6.453 0,0" /></g></g><g
           transform="scale(0.6826667,-0.8996129)"
           id="g208"><g
             transform="translate(600.0049,-353.7402)"
             id="g210"><path
               id="path212"
               style="fill:#ffffff;fill-opacity:1;fill-rule:nonzero;stroke:none"
               d="m 0,0 c 0,6.725 -5.452,12.176 -12.177,12.176 -6.725,0 -12.177,-5.451 -12.177,-12.176 0,-6.725 5.452,-12.177 12.177,-12.177 C -5.452,-12.177 0,-6.725 0,0" /></g></g><g
           transform="scale(0.6826667,-0.8996129)"
           id="g214"><g
             transform="translate(670.5781,-125.0103)"
             id="g216"><path
               id="path218"
               style="fill:#b2b75b;fill-opacity:1;fill-rule:nonzero;stroke:none"
               d="m 0,0 h -21.771 v -174.57 c 0,-2.116 -1.714,-3.83 -3.83,-3.83 -2.115,0 -3.83,1.714 -3.83,3.83 V 0 h -21.465 c -2.601,0 -4.923,1.901 -5.17,4.49 -0.284,2.97 2.045,5.468 4.956,5.468 H 0.214 C 3.125,9.958 5.453,7.46 5.17,4.49 4.923,1.901 2.601,0 0,0" /></g></g><g
           transform="scale(0.6826667,-0.8996129)"
           id="g220"><g
             transform="translate(654.2588,-248.311)"
             id="g222"><path
               id="path224"
               style="fill:#ffa343;fill-opacity:1;fill-rule:nonzero;stroke:none"
               d="m 0,0 c 0,4.418 -3.582,7.999 -8,7.999 -4.418,0 -7.999,-3.581 -7.999,-7.999 0,-4.418 3.581,-7.999 7.999,-7.999 4.418,0 8,3.581 8,7.999" /></g></g><g
           transform="scale(0.6826667,-0.8996129)"
           id="g226"><path
             id="path228"
             style="fill:#962853;fill-opacity:1;fill-rule:nonzero;stroke:none"
             d="M 417.194,-148.653 H 321.83 v -41.282 h 95.364 z" /></g><g
           transform="scale(0.6826667,-0.8996129)"
           id="g230"><g
             transform="translate(193.9116,-200.5835)"
             id="g232"><path
               id="path234"
               style="fill:#962853;fill-opacity:1;fill-rule:nonzero;stroke:none"
               d="m 0,0 v -199.374 c 0,-8.126 6.588,-14.714 14.714,-14.714 h 318.864 c 8.126,0 14.714,6.588 14.714,14.713 V 0 c 0,8.127 -6.589,14.715 -14.715,14.715 H 14.715 C 6.588,14.715 0,8.127 0,0" /></g></g><g
           transform="scale(0.6826667,-0.8996129)"
           id="g236"><g
             transform="translate(532.0283,-400.0986)"
             id="g238"><path
               id="path240"
               style="fill:#fee9dd;fill-opacity:1;fill-rule:nonzero;stroke:none"
               d="m 0,0 v 199.654 c 0,2.251 -1.69,4.108 -3.876,4.37 -0.168,0.018 -0.346,0.028 -0.522,0.028 h -319.138 c -2.438,0 -4.408,-1.97 -4.408,-4.398 V 0 c 0,-2.428 1.97,-4.398 4.408,-4.398 H -4.398 C -1.971,-4.398 0,-2.428 0,0" /></g></g><g
           transform="scale(0.6826667,-0.8996129)"
           id="g242"><g
             transform="translate(528.1523,-196.0747)"
             id="g244"><path
               id="path246"
               style="fill:#f8d7c6;fill-opacity:1;fill-rule:nonzero;stroke:none"
               d="M 0,0 C -0.168,0.019 -0.346,0.028 -0.522,0.028 H -319.66 c -2.438,0 -4.408,-1.97 -4.408,-4.398 v -199.654 z" /></g></g><g
           transform="scale(0.6826667,-0.8996129)"
           id="g248"><g
             transform="translate(516.3633,-210.8716)"
             id="g250"><path
               id="path252"
               style="fill:#ffffff;fill-opacity:1;fill-rule:nonzero;stroke:none"
               d="m 0,0 h -296.612 c -1.105,0 -2,-0.896 -2,-2 v -155.9 c 0,-1.105 0.895,-2 2,-2 H 0 c 1.104,0 2,0.895 2,2 V -2 C 2,-0.896 1.104,0 0,0" /></g></g><g
           transform="scale(0.6826667,-0.8996129)"
           id="g254"><g
             transform="translate(507.0127,-380.0752)"
             id="g256"><path
               id="path258"
               style="fill:#ffffff;fill-opacity:1;fill-rule:nonzero;stroke:none"
               d="m 0,0 h -116.848 c -4.181,0 -7.571,-3.39 -7.571,-7.572 v -0.265 c 0,-4.182 3.39,-7.572 7.571,-7.572 H 0 c 4.182,0 7.571,3.39 7.571,7.572 v 0.265 C 7.571,-3.39 4.182,0 0,0" /></g></g><g
           transform="scale(0.6826667,-0.8996129)"
           id="g260"><g
             transform="translate(417.1943,-185.8648)"
             id="g262"><path
               id="path264"
               style="fill:#6e2444;fill-opacity:1;fill-rule:nonzero;stroke:none"
               d="M 0,0 V 26.415 L -95.364,3.368 V 0 Z" /></g></g><g
           transform="scale(0.6826667,-0.8996129)"
           id="g266"><g
             transform="translate(501.501,-227.1529)"
             id="g268"><path
               id="path270"
               style="fill:none;stroke:#d7d7d7;stroke-width:1;stroke-linecap:butt;stroke-linejoin:miter;stroke-miterlimit:10;stroke-dasharray:none;stroke-opacity:1"
               d="M 0,0 H -270.376 V -116.291 H 0 Z" /></g></g><g
           transform="scale(0.6826667,-0.8996129)"
           id="g272"><g
             transform="translate(231.1245,-332.9775)"
             id="g274"><path
               id="path276"
               style="fill:none;stroke:#d7d7d7;stroke-width:1;stroke-linecap:butt;stroke-linejoin:miter;stroke-miterlimit:10;stroke-dasharray:none;stroke-opacity:1"
               d="M 0,0 H 270.376" /></g></g><g
           transform="scale(0.6826667,-0.8996129)"
           id="g278"><g
             transform="translate(231.1245,-321.2031)"
             id="g280"><path
               id="path282"
               style="fill:none;stroke:#d7d7d7;stroke-width:1;stroke-linecap:butt;stroke-linejoin:miter;stroke-miterlimit:10;stroke-dasharray:none;stroke-opacity:1"
               d="M 0,0 H 270.376" /></g></g><g
           transform="scale(0.6826667,-0.8996129)"
           id="g284"><g
             transform="translate(231.1245,-309.4287)"
             id="g286"><path
               id="path288"
               style="fill:none;stroke:#d7d7d7;stroke-width:1;stroke-linecap:butt;stroke-linejoin:miter;stroke-miterlimit:10;stroke-dasharray:none;stroke-opacity:1"
               d="M 0,0 H 270.376" /></g></g><g
           transform="scale(0.6826667,-0.8996129)"
           id="g290"><g
             transform="translate(231.1245,-297.6543)"
             id="g292"><path
               id="path294"
               style="fill:none;stroke:#d7d7d7;stroke-width:1;stroke-linecap:butt;stroke-linejoin:miter;stroke-miterlimit:10;stroke-dasharray:none;stroke-opacity:1"
               d="M 0,0 H 270.376" /></g></g><g
           transform="scale(0.6826667,-0.8996129)"
           id="g296"><g
             transform="translate(231.1245,-285.8794)"
             id="g298"><path
               id="path300"
               style="fill:none;stroke:#d7d7d7;stroke-width:1;stroke-linecap:butt;stroke-linejoin:miter;stroke-miterlimit:10;stroke-dasharray:none;stroke-opacity:1"
               d="M 0,0 H 270.376" /></g></g><g
           transform="scale(0.6826667,-0.8996129)"
           id="g302"><g
             transform="translate(231.1245,-274.105)"
             id="g304"><path
               id="path306"
               style="fill:none;stroke:#d7d7d7;stroke-width:1;stroke-linecap:butt;stroke-linejoin:miter;stroke-miterlimit:10;stroke-dasharray:none;stroke-opacity:1"
               d="M 0,0 H 270.376" /></g></g><g
           transform="scale(0.6826667,-0.8996129)"
           id="g308"><g
             transform="translate(231.1245,-262.3306)"
             id="g310"><path
               id="path312"
               style="fill:none;stroke:#d7d7d7;stroke-width:1;stroke-linecap:butt;stroke-linejoin:miter;stroke-miterlimit:10;stroke-dasharray:none;stroke-opacity:1"
               d="M 0,0 H 270.376" /></g></g><g
           transform="scale(0.6826667,-0.8996129)"
           id="g314"><g
             transform="translate(231.1245,-250.5562)"
             id="g316"><path
               id="path318"
               style="fill:none;stroke:#d7d7d7;stroke-width:1;stroke-linecap:butt;stroke-linejoin:miter;stroke-miterlimit:10;stroke-dasharray:none;stroke-opacity:1"
               d="M 0,0 H 270.376" /></g></g><g
           transform="scale(0.6826667,-0.8996129)"
           id="g320"><g
             transform="translate(231.1245,-238.7817)"
             id="g322"><path
               id="path324"
               style="fill:none;stroke:#d7d7d7;stroke-width:1;stroke-linecap:butt;stroke-linejoin:miter;stroke-miterlimit:10;stroke-dasharray:none;stroke-opacity:1"
               d="M 0,0 H 270.376" /></g></g><g
           transform="scale(0.6826667,-0.8996129)"
           id="g326"><g
             transform="translate(508.335,-145.981)"
             id="g328"><path
               id="path330"
               style="fill:#962853;fill-opacity:1;fill-rule:nonzero;stroke:none"
               d="m 0,0 h -283.75 l -12.211,11.774 V 24.566 H 18.315 V 11.774 Z" /></g></g><g
           transform="scale(0.6826667,-0.8996129)"
           id="g332"><g
             transform="translate(500.9932,-149.688)"
             id="g334"><path
               id="path336"
               style="fill:#ff6541;fill-opacity:1;fill-rule:nonzero;stroke:none"
               d="m 0,0 h -129.01 -9.012 -129.011 l -11.12,9.594 v 5.887 h 140.131 9.012 140.131 V 9.594 Z" /></g></g><g
           transform="scale(0.6826667,-0.8996129)"
           id="g338"><path
             id="path340"
             style="fill:#668cce;fill-opacity:1;fill-rule:nonzero;stroke:none"
             d="M 452.419,-227.436 H 467.74 V -358.09 h -15.321 z" /></g><g
           transform="scale(0.6826667,-0.8996129)"
           id="g342"><path
             id="path344"
             style="fill:#ff6541;fill-opacity:1;fill-rule:nonzero;stroke:none"
             d="M 414.309,-227.436 H 429.63 V -340.281 H 414.309 Z" /></g><g
           transform="scale(0.6826667,-0.8996129)"
           id="g346"><path
             id="path348"
             style="fill:#b2b75b;fill-opacity:1;fill-rule:nonzero;stroke:none"
             d="m 376.198,-227.436 h 15.321 v -100.911 h -15.321 z" /></g><g
           transform="scale(0.6826667,-0.8996129)"
           id="g350"><path
             id="path352"
             style="fill:#668cce;fill-opacity:1;fill-rule:nonzero;stroke:none"
             d="m 338.088,-227.436 h 15.321 V -307.5 h -15.321 z" /></g><g
           transform="scale(0.6826667,-0.8996129)"
           id="g354"><path
             id="path356"
             style="fill:#ffa343;fill-opacity:1;fill-rule:nonzero;stroke:none"
             d="m 299.978,-227.436 h 15.32 v -58.207 h -15.32 z" /></g><g
           transform="scale(0.6826667,-0.8996129)"
           id="g358"><path
             id="path360"
             style="fill:#ff6444;fill-opacity:1;fill-rule:nonzero;stroke:none"
             d="m 261.867,-227.436 h 15.321 v -31.574 h -15.321 z" /></g><g
           transform="scale(0.6826667,-0.8996129)"
           id="g362"><g
             transform="translate(440.3721,-367.5278)"
             id="g364"><path
               id="path366"
               style="fill:#ff6541;fill-opacity:1;fill-rule:nonzero;stroke:none"
               d="m 0,0 -9.909,4.849 3.466,1.129 -4.787,5.495 h -35.306 l -10.488,16.408 h -33.088 l -25.614,33.835 h -23.212 l -25.614,33.833 h -26.35 v 1.867 h 27.279 l 25.614,-33.833 h 23.212 l 25.614,-33.834 h 33.181 L -45.513,13.34 h 35.132 l 5.346,-6.136 1.593,3.277 z" /></g></g><g
           transform="scale(0.6826667,-0.8996129)"
           id="g368"><g
             transform="translate(562.9209,-98.6724)"
             id="g370"><path
               id="path372"
               style="fill:#ffc692;fill-opacity:1;fill-rule:nonzero;stroke:none"
               d="M 0,0 0.812,7.183 H 8.457 V 0.464 Z" /></g></g><g
           transform="scale(0.6826667,-0.8996129)"
           id="g374"><g
             transform="translate(563.5498,-93.104)"
             id="g376"><path
               id="path378"
               style="fill:#6e2444;fill-opacity:1;fill-rule:nonzero;stroke:none"
               d="m 0,0 c 0,0 -11.402,6.828 -11.402,7.986 0,1.159 0.347,1.738 7.414,1.738 7.066,0 11.353,0.347 12.28,0 C 9.219,9.377 7.828,0 7.828,0 7.828,0 3.757,-1.035 0,0" /></g></g><g
           transform="scale(0.6826667,-0.8996129)"
           id="g380"><g
             transform="translate(588.7559,-98.6724)"
             id="g382"><path
               id="path384"
               style="fill:#ffc692;fill-opacity:1;fill-rule:nonzero;stroke:none"
               d="M 0,0 0.927,5.108 H 8.805 V 0.464 Z" /></g></g><g
           transform="scale(0.6826667,-0.8996129)"
           id="g386"><g
             transform="translate(597.5605,-94.0386)"
             id="g388"><path
               id="path390"
               style="fill:#6e2444;fill-opacity:1;fill-rule:nonzero;stroke:none"
               d="M 0,0 H -7.964 L -9.1,3.752 c -1.296,1.153 -3.211,2.824 -4.223,3.547 -1.621,1.158 -2.664,2.857 2.086,3.514 0.321,0.044 0.611,0.038 0.88,0 h 9.878 c 1.02,0 1.83,-0.857 1.765,-1.875 C 1.073,5.57 0,0 0,0" /></g></g><g
           transform="scale(0.6826667,-0.8996129)"
           id="g392"><g
             transform="translate(600.3984,-234.9966)"
             id="g394"><path
               id="path396"
               style="fill:#ffc692;fill-opacity:1;fill-rule:nonzero;stroke:none"
               d="m 0,0 c 0,0 1.098,15.194 2.194,26.249 1.098,11.055 -4.717,29.32 -4.717,29.32 0,0 -0.219,3.786 -1.206,5.652 -0.989,1.865 -2.74,2.523 -2.74,2.523 L -6.918,49.701 -6.128,31.542 -9.113,13.11 -6.363,4.608 Z" /></g></g><g
           transform="scale(0.6826667,-0.8996129)"
           id="g398"><g
             transform="translate(591.8408,-256.7886)"
             id="g400"><path
               id="path402"
               style="fill:#f48929;fill-opacity:1;fill-rule:nonzero;stroke:none"
               d="M 0,0 C 0,0 7.241,6.213 12.069,22.67 L 1.536,29.473 C 1.536,29.473 2.414,7.391 0,0" /></g></g><g
           transform="scale(0.6826667,-0.8996129)"
           id="g404"><g
             transform="translate(591.2852,-193.6392)"
             id="g406"><path
               id="path408"
               style="fill:#b2b75b;fill-opacity:1;fill-rule:nonzero;stroke:none"
               d="M 0,0 15.743,3.735 12.292,24.94 -0.78,20.778 Z" /></g></g><g
           transform="scale(0.6826667,-0.8996129)"
           id="g410"><g
             transform="translate(598.8535,-97.1909)"
             id="g412"><path
               id="path414"
               style="fill:#6e2444;fill-opacity:1;fill-rule:nonzero;stroke:none"
               d="M 0,0 -11.533,1.074 -22.44,-80.086 -26.876,1.429 -37.298,2.11 c 0,0 0,-0.018 -0.01,-0.065 -0.148,-1.607 -2.95,-31.19 -4.267,-47.682 -1.251,-15.641 -2.148,-51.79 -2.279,-57.3 -0.008,-0.466 -0.018,-0.709 -0.018,-0.709 23.43,4.753 37.998,0 37.998,0 z" /></g></g><g
           transform="scale(0.6826667,-0.8996129)"
           id="g416"><g
             transform="translate(560.2207,-139.1108)"
             id="g418"><path
               id="path420"
               style="fill:#56183a;fill-opacity:1;fill-rule:nonzero;stroke:none"
               d="m 0,0 c 0.747,25.363 4.062,43.788 4.062,43.788 l -2.737,0.177 c -0.148,-1.607 -2.95,-31.19 -4.267,-47.682 -1.251,-15.641 -2.148,-51.79 -2.279,-57.3 1.84,0.608 5.846,1.719 11.225,1.924 0,0 -7.555,6.537 -6.004,59.093" /></g></g><g
           transform="scale(0.6826667,-0.8996129)"
           id="g422"><g
             transform="translate(577.1387,-260.4458)"
             id="g424"><path
               id="path426"
               style="fill:#ffc692;fill-opacity:1;fill-rule:nonzero;stroke:none"
               d="m 0,0 -10.016,3.657 v -7.154 c 0,0 -6.677,-2.916 -6.995,-11.156 -0.318,-8.24 2.862,-16.825 12.401,-16.507 9.538,0.318 10.969,10.334 10.174,14.308 -0.794,3.975 -5.247,9.221 -5.247,9.221 z" /></g></g><g
           transform="scale(0.6826667,-0.8996129)"
           id="g428"><g
             transform="translate(567.5684,-282.9458)"
             id="g430"><path
               id="path432"
               style="fill:#6e2444;fill-opacity:1;fill-rule:nonzero;stroke:none"
               d="m 0,0 c 0,0 -2.621,3.657 -1.549,6.757 0,0 1.628,-1.987 3.139,-1.907 1.51,0.079 2.225,2.146 1.271,4.927 -0.953,2.783 -4.053,2.544 -4.053,2.544 0,0 1.51,2.306 2.702,3.259 l 8.378,-0.711 c 0,0 6.725,-6.281 7.52,-10.018 C 18.203,1.113 16.772,0 16.772,0 c 0,0 1.154,-3.497 -1.45,-6.597 -2.603,-3.1 -10.155,-7.552 -13.494,-7.552 -3.339,0 -3.18,1.987 -3.18,1.987 0,0 -3.179,-1.669 -3.418,1.511 C -4.865,-9.373 -4.772,-4.451 0,0" /></g></g><g
           transform="scale(0.6826667,-0.8996129)"
           id="g434"><g
             transform="translate(565.8701,-259.6724)"
             id="g436"><path
               id="path438"
               style="fill:#ffa343;fill-opacity:1;fill-rule:nonzero;stroke:none"
               d="m 0,0 -14.185,5.146 3.291,54.419 c 0,0 10.916,2.633 22.245,2.195 11.329,-0.44 15.717,-2.414 15.717,-2.414 0,0 3.291,-40.156 3.072,-46.08 C 29.921,7.341 25.971,2.884 25.971,2.884 L 18.994,0.191 C 12.894,-2.163 6.146,-2.231 0,0" /></g></g><g
           transform="scale(0.6826667,-0.8996129)"
           id="g440"><g
             transform="translate(565.1201,-259.4009)"
             id="g442"><path
               id="path444"
               style="fill:#f48929;fill-opacity:1;fill-rule:nonzero;stroke:none"
               d="m 0,0 c 0,0 2.145,-3.609 8.143,-4.779 5.998,-1.17 8.506,3.715 8.506,3.715 0,0 -8.307,-1.963 -16.649,1.064" /></g></g><g
           transform="scale(0.6826667,-0.8996129)"
           id="g446"><g
             transform="translate(556.623,-191.3296)"
             id="g448"><path
               id="path450"
               style="fill:#ffc692;fill-opacity:1;fill-rule:nonzero;stroke:none"
               d="M 0,0 C -0.329,-2.908 -1.007,-3.145 -1.007,-3.145 L -13.255,-19.237 -3.2,-34.472 -13.788,-46.738 c 0,0 -11.117,21.064 -11.702,27.501 -0.586,6.436 19.309,22.235 19.309,22.235 0.128,0.695 2.505,4.846 2.505,4.846 0,0 0.22,1.536 0.439,2.853 0.219,1.317 2.194,1.203 2.194,1.203 L -1.007,7.844 C -1.007,7.844 0.329,2.907 0,0" /></g></g><g
           transform="scale(0.6826667,-0.8996129)"
           id="g452"><g
             transform="translate(551.6855,-254.5259)"
             id="g454"><path
               id="path456"
               style="fill:#ffa343;fill-opacity:1;fill-rule:nonzero;stroke:none"
               d="M 0,0 -13.239,16.165 1.737,28.725 C 1.737,28.725 7.68,12.801 0,0" /></g></g><g
           transform="scale(0.6826667,-0.8996129)"
           id="g458"><g
             transform="translate(553.4229,-225.8013)"
             id="g460"><path
               id="path462"
               style="fill:#f48929;fill-opacity:1;fill-rule:nonzero;stroke:none"
               d="m 0,0 c 0,0 3.94,-17.297 0,-27.103 0,0 5.865,5.336 5.198,16.542 C 4.531,0.646 0.274,4.53 0.274,4.53 Z" /></g></g><g
           transform="scale(0.6826667,-0.8996129)"
           id="g464"><g
             transform="translate(576.416,-177.2778)"
             id="g466"><path
               id="path468"
               style="fill:#56183a;fill-opacity:1;fill-rule:nonzero;stroke:none"
               d="m 0,0 11.954,-6.255 c 0,0 -4.136,3.602 -2.934,26.147 1.2,22.546 7.722,60.722 7.722,60.722 l -5.838,0.546 z" /></g></g><g
           transform="scale(0.6826667,-0.8996129)"
           id="g470"><g
             transform="translate(170.229,-149.4898)"
             id="g472"><path
               id="path474"
               style="fill:#ffc692;fill-opacity:1;fill-rule:nonzero;stroke:none"
               d="M 0,0 C 0,0 5.514,38.85 12.469,55.567 L 18.625,54.323 12.542,-4.219 Z" /></g></g><g
           transform="scale(0.6826667,-0.8996129)"
           id="g476"><g
             transform="translate(181.4839,-97.0991)"
             id="g478"><path
               id="path480"
               style="fill:#962853;fill-opacity:1;fill-rule:nonzero;stroke:none"
               d="m 0,0 c 0,0 0.101,7.649 1.468,10.559 l 1.366,2.909 2.313,-0.467 -0.55,-2.721 c 0,0 2.901,1.042 4.467,1.434 1.566,0.391 12.123,-1.318 13.427,-2.219 1.305,-0.9 -9.262,-4.145 -9.262,-4.145 0,0 -3.506,2.271 -7.103,0.588 C 2.53,4.256 0,0 0,0" /></g></g><g
           transform="scale(0.6826667,-0.8996129)"
           id="g482"><g
             transform="translate(188.1016,-97.1382)"
             id="g484"><path
               id="path486"
               style="fill:#ffc692;fill-opacity:1;fill-rule:nonzero;stroke:none"
               d="M 0,0 C 0,0 4.938,4.854 6.611,5.389 8.284,5.924 2.537,9.049 -1.647,6.211 -5.832,3.373 -6.454,0.299 -6.454,0.299 Z" /></g></g><g
           transform="scale(0.6826667,-0.8996129)"
           id="g488"><g
             transform="translate(156.9858,-149.1538)"
             id="g490"><path
               id="path492"
               style="fill:#ffc692;fill-opacity:1;fill-rule:nonzero;stroke:none"
               d="m 0,0 c 0,0 -2.291,39.171 1.214,56.936 h 6.28 L 13.13,-1.651 Z" /></g></g><g
           transform="scale(0.6826667,-0.8996129)"
           id="g494"><g
             transform="translate(160.1196,-260.9927)"
             id="g496"><path
               id="path498"
               style="fill:#b2b75b;fill-opacity:1;fill-rule:nonzero;stroke:none"
               d="M 0,0 -15.624,6.32 -6.984,52.475 14.927,51.642 20.026,5.737 8.802,2.166 v 2.429 z" /></g></g><g
           transform="scale(0.6826667,-0.8996129)"
           id="g500"><g
             transform="translate(156.8472,-241.1431)"
             id="g502"><path
               id="path504"
               style="fill:#f1ecff;fill-opacity:1;fill-rule:nonzero;stroke:none"
               d="M 0,0 4.676,23.882 20.929,20.224 16.29,-2.561 Z" /></g></g><g
           transform="scale(0.6826667,-0.8996129)"
           id="g506"><g
             transform="translate(141.7061,-249.0112)"
             id="g508"><path
               id="path510"
               style="fill:#ffc692;fill-opacity:1;fill-rule:nonzero;stroke:none"
               d="m 0,0 c 0.9,6.937 2.669,17.493 5.7,24.467 1.446,3.328 5.264,4.929 8.696,3.747 L 33.755,21.543 31.779,15.87 13.912,18.005 c 0,0 -0.807,-13.186 -3.281,-20.455 C 10.605,-2.524 10.58,-2.598 10.553,-2.671 8.309,-8.758 -0.835,-6.434 0,0" /></g></g><g
           transform="scale(0.6826667,-0.8996129)"
           id="g512"><g
             transform="translate(180.146,-255.2554)"
             id="g514"><path
               id="path516"
               style="fill:#ffa568;fill-opacity:1;fill-rule:nonzero;stroke:none"
               d="m 0,0 c 0,0 2.653,2.049 2.099,11.486 -0.556,9.438 2.742,19.467 -3.504,20.3 0,0 0.247,-26.805 1.405,-31.786" /></g></g><g
           transform="scale(0.6826667,-0.8996129)"
           id="g518"><g
             transform="translate(182.3169,-230.3364)"
             id="g520"><path
               id="path522"
               style="fill:#ffc692;fill-opacity:1;fill-rule:nonzero;stroke:none"
               d="m 0,0 c -0.14,5.49 -3.577,6.863 -3.577,6.863 0,0 -2.203,0.719 -4.958,-3.782 -1.663,-2.727 -1.513,-29.033 -1.494,-31.582 -0.019,0.01 -0.038,0.01 -0.038,0.01 l -0.009,-0.02 -2.307,-4.631 -0.149,-0.308 0.261,-1.093 0.01,0.01 1.97,1.447 0.448,-2.073 2.204,-5.79 1.373,1.494 v 0.01 l 0.299,0.317 0.401,1.093 c 0,0 1.102,0.784 1.018,1.41 -0.084,0.625 -1.018,5.435 -1.018,5.435 -0.037,0.093 -0.093,0.186 -0.168,0.28 C -4.557,-25.736 0.121,-4.81 0,0" /></g></g><g
           transform="scale(0.6826667,-0.8996129)"
           id="g524"><g
             transform="translate(174.3325,-260.6118)"
             id="g526"><path
               id="path528"
               style="fill:#ffa568;fill-opacity:1;fill-rule:nonzero;stroke:none"
               d="m 0,0 c 0,0 -0.598,1.952 -2.045,1.774 -0.019,0 -0.028,0 -0.047,-0.009 l -2.306,-4.631 c 0.019,-0.449 0.065,-0.916 0.121,-1.392 l 1.97,1.447 0.449,-2.073 2.204,-5.79 1.372,1.494 v 0.01 C 3.091,-4.632 0,0 0,0" /></g></g><g
           transform="scale(0.6826667,-0.8996129)"
           id="g530"><g
             transform="translate(160.1777,-259.5903)"
             id="g532"><path
               id="path534"
               style="fill:#ffc692;fill-opacity:1;fill-rule:nonzero;stroke:none"
               d="m 0,0 8.744,3.192 v -6.245 c 0,0 5.828,-2.546 6.106,-9.739 0.277,-7.192 -2.498,-14.687 -10.825,-14.409 -8.327,0.278 -9.576,9.02 -8.882,12.49 0.694,3.47 4.58,8.05 4.58,8.05 z" /></g></g><g
           transform="scale(0.6826667,-0.8996129)"
           id="g536"><g
             transform="translate(155.6675,-286.0977)"
             id="g538"><path
               id="path540"
               style="fill:#6e2444;fill-opacity:1;fill-rule:nonzero;stroke:none"
               d="m 0,0 c 0,0 -2.984,1.804 -5.413,7.911 -2.428,6.106 -4.51,18.18 -4.51,18.18 l 4.962,0.486 0.867,-3.33 -0.07,3.33 c 0,0 6.359,0.714 8.536,0.694 0,0 0.347,-7.494 0,-10.479 C 4.025,13.809 1.943,15.543 1.041,11.45 0.139,7.356 3.261,8.049 4.094,9.437 c 0.833,1.388 0.971,2.637 0.971,2.637 l 0.764,-0.416 c 0,0 1.318,-4.025 0,-6.8 0,0 4.718,-1.389 6.939,-1.18 V 1.735 l 0.902,1.874 3.83,0.659 c 0,0 1.977,3.782 1.879,7.112 0,0 1.829,-3.331 0.003,-8.188 C 17.556,-1.666 7.633,-6.245 0,0" /></g></g><g
           transform="scale(0.6826667,-0.8996129)"
           id="g542"><g
             transform="translate(185.0156,-149.1587)"
             id="g544"><path
               id="path546"
               style="fill:#6e2444;fill-opacity:1;fill-rule:nonzero;stroke:none"
               d="m 0,0 v 0.01 l -29.854,5.303 c 0,0 -9.834,-37.745 -9.414,-51.351 0.411,-13.597 5.566,-20.227 5.566,-20.227 20.423,3.362 24.55,0 24.55,0 C 1.392,-48.158 0.028,-0.906 0,0" /></g></g><g
           transform="scale(0.6826667,-0.8996129)"
           id="g548"><g
             transform="translate(157.6387,-95.5728)"
             id="g550"><path
               id="path552"
               style="fill:#962853;fill-opacity:1;fill-rule:nonzero;stroke:none"
               d="m 0,0 c 0,0 -1.416,7.518 -0.653,10.641 l 0.763,3.122 h 2.36 v -2.776 c 0,0 2.637,1.596 4.094,2.29 1.457,0.695 12.144,1.111 13.601,0.486 1.457,-0.624 -8.258,-5.898 -8.258,-5.898 0,0 -3.886,1.531 -7.078,-0.831 C 1.637,4.673 0,0 0,0" /></g></g><g
           transform="scale(0.6826667,-0.8996129)"
           id="g554"><g
             transform="translate(164.1333,-94.3003)"
             id="g556"><path
               id="path558"
               style="fill:#ffc692;fill-opacity:1;fill-rule:nonzero;stroke:none"
               d="M 0,0 C 0,0 3.878,5.736 5.413,6.593 6.946,7.448 0.694,9.373 -2.845,5.762 -6.384,2.151 -6.386,-0.985 -6.386,-0.985 Z" /></g></g><g
           transform="scale(0.6826667,-0.8996129)"
           id="g560"><g
             transform="translate(160.1196,-260.9927)"
             id="g562"><path
               id="path564"
               style="fill:#6e2444;fill-opacity:1;fill-rule:nonzero;stroke:none"
               d="m 0,0 7.771,4.219 c 0,0 -2.925,1.829 -5.492,1.518 -2.568,-0.309 -4.58,-4.751 -4.58,-4.751 z" /></g></g><g
           transform="scale(0.6826667,-0.8996129)"
           id="g566"><g
             transform="translate(168.9214,-259.7983)"
             id="g568"><path
               id="path570"
               style="fill:#6e2444;fill-opacity:1;fill-rule:nonzero;stroke:none"
               d="m 0,0 -1.03,3.024 c 0,0 0.891,1.279 1.897,0.931 C 1.874,3.608 1.631,0.972 1.631,0.972 Z" /></g></g><g
           transform="scale(0.6826667,-0.8996129)"
           id="g572"><g
             transform="translate(185.0156,-149.1587)"
             id="g574"><path
               id="path576"
               style="fill:#56183a;fill-opacity:1;fill-rule:nonzero;stroke:none"
               d="m 0,0 c 0,-0.252 -0.056,-9.432 -7.723,-28.37 -7.779,-19.209 -25.979,-37.895 -25.979,-37.895 20.423,3.362 24.55,0 24.55,0 C 1.392,-48.158 0.028,-0.906 0,0" /></g></g><g
           transform="scale(0.6826667,-0.8996129)"
           id="g578"><g
             transform="translate(161.3247,-267.7612)"
             id="g580"><path
               id="path582"
               style="fill:#ffa568;fill-opacity:1;fill-rule:nonzero;stroke:none"
               d="M 0,0 C 0,0 1.786,4.333 7.597,5.118 V 6.769 C 7.597,6.769 0.4,6.903 0,0" /></g></g><g
           transform="scale(0.6826667,-0.8996129)"
           id="g584"><g
             transform="translate(155.8052,-230.4829)"
             id="g586"><path
               id="path588"
               style="fill:#ffa568;fill-opacity:1;fill-rule:nonzero;stroke:none"
               d="M 0,0 C 0,0 0,3.126 -0.467,5.595 -0.467,5.595 2.602,3.812 0,0" /></g></g><g
           transform="scale(0.6826667,-0.8996129)"
           id="g590"><g
             transform="translate(171.8789,-139.02)"
             id="g592"><path
               id="path594"
               style="fill:#ffa568;fill-opacity:1;fill-rule:nonzero;stroke:none"
               d="M 0,0 11.751,-6.427 11.398,-9.82 -1.219,-7.579 c 0,0 1.137,7.093 1.219,7.579" /></g></g><g
           transform="scale(0.6826667,-0.8996129)"
           id="g596"><g
             transform="translate(168.917,-138.3433)"
             id="g598"><path
               id="path600"
               style="fill:#ffa568;fill-opacity:1;fill-rule:nonzero;stroke:none"
               d="m 0,0 -12.426,0.969 0.249,-6.751 12.955,-2.302 z" /></g></g></g></g></g></svg>