<svg width="66" height="66" viewBox="0 0 66 66" fill="none" xmlns="http://www.w3.org/2000/svg">
<circle cx="33" cy="33" r="32" fill="#6D28D9" fill-opacity="0.1" stroke="#6D28D9" stroke-width="0.5"/>
<path d="M40.928 29.5632L42.7758 29.4419C42.779 29.4417 42.7823 29.4414 42.7857 29.4412C44.1025 29.3262 45.2845 28.6118 46.0288 27.4808L47.4896 25.2616C48.7611 23.3296 49.2537 20.996 48.8763 18.6911C48.8021 18.2384 48.5785 17.8212 48.2469 17.5168C47.915 17.2122 47.4884 17.0323 47.0455 17.0105C44.7895 16.8987 42.612 17.685 40.9122 19.2238L38.9595 20.9916C37.9644 21.8922 37.4212 23.1929 37.4687 24.5607C37.4689 24.5639 37.4689 24.5674 37.4692 24.5709L37.5745 26.4848C37.6155 27.2309 37.3514 27.9671 36.8511 28.5033L21.5957 44.7312C21.1873 45.1722 20.9764 45.7772 21.0021 46.4349C21.0304 47.1589 21.3512 47.87 21.8604 48.3374C22.3204 48.7595 22.9526 49 23.5846 49C23.6523 49 23.72 48.9973 23.7874 48.9916C24.4211 48.9391 24.9761 48.6499 25.3519 48.1744L39.0785 30.5501C39.5337 29.9702 40.2079 29.6104 40.928 29.5632ZM38.3457 29.9359L24.6203 47.5587C24.4105 47.824 24.0881 47.9875 23.7123 48.0186C23.2653 48.0556 22.807 47.9016 22.4859 47.6069C22.1649 47.312 21.9624 46.8593 21.9444 46.3954C21.929 46.0056 22.0468 45.6545 22.2738 45.4095L37.528 29.1828C38.2118 28.4501 38.5717 27.4466 38.5161 26.4294L38.4107 24.5204C38.375 23.4498 38.8009 22.4319 39.58 21.7265L41.5327 19.9587C43.0482 18.587 44.9903 17.8865 47.0006 17.9854C47.2295 17.9969 47.4498 18.0898 47.6213 18.2473C47.7929 18.4046 47.9083 18.6202 47.9467 18.8541C48.2831 20.9091 47.844 22.9892 46.7105 24.7115L45.2497 26.931C44.6669 27.8165 43.7419 28.3763 42.7111 28.468L40.8683 28.5887C39.8864 28.6533 38.9674 29.1438 38.3457 29.9359Z" fill="#6D28D9"/>
<path d="M48.279 44.6594L37.6549 35.1258C37.455 34.9464 37.1454 34.9606 36.963 35.1575C36.7811 35.3544 36.7955 35.6596 36.9954 35.8391L47.6168 45.3704C47.8695 45.6005 48.0128 45.9396 48.0205 46.3251C48.0298 46.7838 47.8471 47.2427 47.5318 47.5533C47.2168 47.8636 46.7517 48.0441 46.2852 48.0348C45.8939 48.0272 45.5497 47.886 45.3187 47.6397L35.8517 37.3998C35.6695 37.2026 35.3598 37.1886 35.1599 37.3679C34.96 37.5473 34.9455 37.8525 35.1277 38.0495L44.597 48.2919C45.0132 48.7353 45.6058 48.9867 46.266 48.9995C46.2832 48.9998 46.3001 49 46.3173 49C47.0269 49 47.7364 48.7164 48.2242 48.2356C48.7241 47.7431 49.0139 47.0219 48.9995 46.3062C48.9865 45.6558 48.7316 45.0719 48.279 44.6594Z" fill="#6D28D9"/>
<path d="M22.8948 29.8454C23.7034 30.5893 24.7539 31.0134 25.8529 31.0397C25.8563 31.04 25.8598 31.04 25.8631 31.04L27.7816 31.0459C28.5295 31.0481 29.2483 31.3652 29.7528 31.9142L30.598 32.8406C30.6944 32.9464 30.8265 33 30.9592 33C31.0766 33 31.1944 32.958 31.2879 32.8729C31.4876 32.6914 31.502 32.3827 31.3203 32.1836L30.4739 31.256C29.7846 30.5056 28.8045 30.0736 27.7848 30.0701L25.8715 30.0641C25.0214 30.0425 24.2086 29.7175 23.5788 29.1482L18.0189 22.548C17.9622 22.4804 17.9664 22.3826 18.0288 22.3203C18.0716 22.2773 18.1218 22.2711 18.1479 22.2711C18.1741 22.2711 18.2243 22.2773 18.2673 22.3203L23.3282 27.3744C23.8284 27.8739 24.6425 27.8739 25.1427 27.3741L25.7375 26.7804V26.7802L26.7935 25.7257C26.7935 25.7257 26.7937 25.7257 26.7937 25.7254L26.794 25.7252L27.3885 25.1315C27.8887 24.6319 27.8887 23.819 27.3885 23.3194L22.3276 18.2656C22.262 18.2001 22.262 18.0931 22.3276 18.0275C22.39 17.9652 22.488 17.961 22.5556 18.0176L29.165 23.57C29.7354 24.1987 30.0609 25.0106 30.0825 25.8593L30.0882 27.7701C30.0917 28.7882 30.5246 29.7669 31.277 30.4567L32.1825 31.2803C32.3822 31.4618 32.691 31.4474 32.8728 31.2483C33.0543 31.0489 33.0399 30.7405 32.8405 30.559L31.9364 29.7366C31.3852 29.2316 31.0679 28.5135 31.0654 27.7669L31.0594 25.8511C31.0594 25.8476 31.0594 25.8441 31.0592 25.8406C31.0328 24.7432 30.6081 23.6941 29.8632 22.8867C29.8493 22.8715 29.8344 22.8571 29.8185 22.8437L23.1844 17.271C22.7259 16.8856 22.0606 16.9144 21.6369 17.3375C21.1901 17.7837 21.1901 18.5095 21.6369 18.9554L26.6978 24.0095C26.8171 24.1286 26.8171 24.3226 26.6978 24.4417L26.4484 24.6905L20.8079 19.0582C20.6172 18.8675 20.3079 18.8675 20.1172 19.0582C19.9265 19.2486 19.9265 19.5575 20.1172 19.748L25.7576 25.3805L25.3921 25.7453L19.7517 20.1129C19.561 19.9225 19.2517 19.9225 19.061 20.1129C18.87 20.3034 18.87 20.6123 19.061 20.8027L24.7012 26.4353L24.452 26.6843C24.3327 26.8035 24.1385 26.8035 24.0191 26.6843L18.958 21.6305C18.7417 21.4145 18.454 21.2953 18.1479 21.2953C17.8419 21.2953 17.5542 21.4145 17.3379 21.6305C16.9142 22.0536 16.8856 22.7181 17.2712 23.1762L22.852 29.8007C22.8652 29.8166 22.8796 29.8315 22.8948 29.8454Z" fill="#6D28D9"/>
</svg>
