<svg width="66" height="66" viewBox="0 0 66 66" fill="none" xmlns="http://www.w3.org/2000/svg">
<circle cx="33" cy="33" r="32" fill="#6D28D9" fill-opacity="0.1" stroke="#6D28D9" stroke-width="0.5"/>
<path d="M28.1102 42.4655H14.6216V41.925C14.6216 40.1363 15.3321 38.4208 16.5969 37.156C17.8618 35.8912 19.5772 35.1807 21.3659 35.1807C23.1546 35.1807 24.8701 35.8912 26.1349 37.156C27.3997 38.4208 28.1102 40.1363 28.1102 41.925V42.4655ZM15.7281 41.3845H27.0037C26.8671 39.984 26.2142 38.6846 25.1721 37.7392C24.1299 36.7937 22.7732 36.27 21.3662 36.27C19.9591 36.27 18.6024 36.7937 17.5603 37.7392C16.5182 38.6846 15.8652 39.984 15.7286 41.3845H15.7281Z" fill="#6D28D9"/>
<path d="M21.3736 47.5486C19.8833 47.5463 18.4548 46.9533 17.401 45.8996C16.3473 44.8458 15.7542 43.4172 15.752 41.927H16.833C16.833 43.1299 17.3109 44.2835 18.1614 45.134C19.012 45.9846 20.1656 46.4624 21.3684 46.4624C22.5713 46.4624 23.7249 45.9846 24.5755 45.134C25.426 44.2835 25.9038 43.1299 25.9038 41.927H26.9849C26.9849 43.4162 26.3941 44.8445 25.342 45.8985C24.29 46.9524 22.8627 47.5459 21.3736 47.5486Z" fill="#6D28D9"/>
<path d="M21.3735 45.1875C20.5085 45.1865 19.6792 44.8424 19.0676 44.2308C18.4559 43.6191 18.1118 42.7898 18.1108 41.9248H19.1919C19.1919 42.5014 19.421 43.0544 19.8287 43.4621C20.2364 43.8698 20.7894 44.0989 21.366 44.0989C21.9426 44.0989 22.4956 43.8698 22.9033 43.4621C23.311 43.0544 23.54 42.5014 23.54 41.9248H24.6211C24.6221 42.7878 24.2808 43.616 23.672 44.2276C23.0631 44.8393 22.2366 45.1845 21.3735 45.1875Z" fill="#6D28D9"/>
<path d="M41.3004 47.5498C40.4402 47.5466 39.5921 47.3467 38.821 46.9655C38.0499 46.5843 37.3761 46.0319 36.8513 45.3503C36.3264 44.6688 35.9643 43.8763 35.7927 43.0334C35.621 42.1905 35.6444 41.3195 35.861 40.4871L36.9064 40.7644C36.7419 41.3891 36.7125 42.0417 36.8202 42.6787C36.9278 43.3157 37.17 43.9224 37.5307 44.4584C37.8913 44.9944 38.362 45.4473 38.9115 45.787C39.461 46.1267 40.0766 46.3454 40.7172 46.4285C41.3579 46.5115 42.0089 46.457 42.6268 46.2687C43.2448 46.0803 43.8154 45.7623 44.3008 45.336C44.7862 44.9097 45.1751 44.3848 45.4416 43.7963C45.7081 43.2078 45.8461 42.5693 45.8464 41.9233C45.845 41.5301 45.7955 41.1385 45.6988 40.7573L46.7474 40.4952C46.8656 40.9622 46.9261 41.442 46.9274 41.9238C46.9254 43.4155 46.3319 44.8455 45.2771 45.9001C44.2222 46.9548 42.7921 47.548 41.3004 47.5498Z" fill="#6D28D9"/>
<path d="M41.3003 45.1428C40.7407 45.1411 40.1912 44.9937 39.7059 44.7151C39.2206 44.4365 38.8162 44.0363 38.5325 43.5539C38.2489 43.0716 38.0957 42.5236 38.0882 41.9641C38.0806 41.4045 38.219 40.8526 38.4895 40.3628L39.4344 40.8882C39.2552 41.213 39.1638 41.5788 39.1692 41.9497C39.1746 42.3205 39.2766 42.6836 39.4652 43.003C39.6537 43.3224 39.9223 43.5871 40.2444 43.771C40.5666 43.9549 40.931 44.0516 41.302 44.0516C41.6729 44.0516 42.0374 43.9549 42.3595 43.771C42.6816 43.5871 42.9502 43.3224 43.1387 43.003C43.3273 42.6836 43.4293 42.3205 43.4347 41.9497C43.4401 41.5788 43.3487 41.213 43.1695 40.8882L44.1144 40.3628C44.3848 40.8527 44.523 41.4045 44.5153 41.964C44.5077 42.5235 44.3546 43.0713 44.0709 43.5537C43.7873 44.036 43.383 44.4362 42.8978 44.7148C42.4125 44.9934 41.8631 45.1409 41.3036 45.1428H41.3003Z" fill="#6D28D9"/>
<path d="M47.9861 41.1687H27.4326V40.0876H46.8169C46.5854 38.2116 45.8804 36.4253 44.7682 34.8968C43.6561 33.3683 42.1734 32.1479 40.4596 31.3503L40.3575 31.3006L40.8278 30.3276L40.931 30.3774C42.9069 31.2976 44.5999 32.7307 45.8338 34.5275C47.0677 36.3243 47.7973 38.419 47.9467 40.5936L47.9861 41.1687Z" fill="#6D28D9"/>
<path d="M20.4419 35.9037H19.3608V33.4653C19.3654 30.1201 20.496 26.8738 22.5706 24.2496L23.2035 23.4507L24.0506 24.122L23.4176 24.921C21.494 27.3539 20.4456 30.3637 20.4414 33.4653L20.4419 35.9037Z" fill="#6D28D9"/>
<path d="M29.1543 36.2578C28.6584 36.2549 28.1635 36.2142 27.6738 36.1361C26.9955 36.0587 26.3404 35.843 25.7487 35.5024C25.1571 35.1619 24.6415 34.7037 24.2338 34.1561C21.6678 30.4421 24.9187 24.8459 25.0581 24.6091L25.9889 25.1589C25.9581 25.2129 22.9505 30.3972 25.1241 33.5416C25.4489 33.9672 25.8572 34.3221 26.324 34.5845C26.7908 34.8469 27.3062 35.0112 27.8387 35.0675C29.537 35.328 30.7797 35.1216 31.6392 34.4361C32.4727 33.7707 32.9538 32.6178 33.0678 31.0102L34.1489 31.087C34.0122 33.0086 33.3954 34.4199 32.316 35.281C31.4079 35.9646 30.2898 36.3101 29.1543 36.2578Z" fill="#6D28D9"/>
<path d="M26.1309 25.4255H24.9839V18.4185H26.1309C27.0319 18.4195 27.8957 18.7778 28.5328 19.4149C29.1699 20.052 29.5283 20.9158 29.5293 21.8168V22.0271C29.5283 22.9281 29.1699 23.7919 28.5328 24.429C27.8957 25.0661 27.0319 25.4245 26.1309 25.4255ZM26.065 24.3444H26.1309C26.7452 24.3437 27.3342 24.0993 27.7685 23.6649C28.2028 23.2304 28.4471 22.6414 28.4477 22.0271V21.8168C28.4471 21.2024 28.2028 20.6133 27.7683 20.1789C27.3339 19.7444 26.7448 19.5001 26.1304 19.4995H26.065V24.3444Z" fill="#6D28D9"/>
<path d="M25.0002 24.6583C24.2744 24.6583 23.5784 24.37 23.0652 23.8568C22.552 23.3436 22.2637 22.6476 22.2637 21.9218C22.2637 21.196 22.552 20.5 23.0652 19.9868C23.5784 19.4736 24.2744 19.1853 25.0002 19.1853C25.2262 19.1868 25.4511 19.2185 25.6688 19.2794L25.3839 20.3226C25.2589 20.2879 25.1299 20.2698 25.0002 20.2685C24.5611 20.2685 24.1401 20.443 23.8296 20.7534C23.5192 21.0639 23.3448 21.4849 23.3448 21.924C23.3448 22.363 23.5192 22.7841 23.8296 23.0945C24.1401 23.4049 24.5611 23.5794 25.0002 23.5794C25.1299 23.5781 25.2589 23.56 25.3839 23.5253L25.6688 24.5685C25.4509 24.628 25.226 24.6581 25.0002 24.6583Z" fill="#6D28D9"/>
<path d="M40.1895 31.3531H33.5711C33.0727 31.3531 32.5947 31.1551 32.2423 30.8027C31.8899 30.4503 31.6919 29.9723 31.6919 29.4739C31.6919 28.9755 31.8899 28.4975 32.2423 28.1451C32.5947 27.7927 33.0727 27.5947 33.5711 27.5947H40.1895C40.6879 27.5947 41.1658 27.7927 41.5183 28.1451C41.8707 28.4975 42.0687 28.9755 42.0687 29.4739C42.0687 29.9723 41.8707 30.4503 41.5183 30.8027C41.1658 31.1551 40.6879 31.3531 40.1895 31.3531ZM33.5711 28.6758C33.3594 28.6758 33.1564 28.7599 33.0067 28.9096C32.8571 29.0592 32.773 29.2622 32.773 29.4739C32.773 29.6856 32.8571 29.8886 33.0067 30.0383C33.1564 30.1879 33.3594 30.272 33.5711 30.272H40.1895C40.4011 30.272 40.6041 30.1879 40.7538 30.0383C40.9035 29.8886 40.9876 29.6856 40.9876 29.4739C40.9876 29.2622 40.9035 29.0592 40.7538 28.9096C40.6041 28.7599 40.4011 28.6758 40.1895 28.6758H33.5711Z" fill="#6D28D9"/>
<path d="M45.7555 35.0653L44.9766 34.3156L49.5939 29.515V28.135H50.6749V29.9507L45.7555 35.0653Z" fill="#6D28D9"/>
<path d="M52.4597 28.6758H42.1895V19.4866H52.4597V28.6758ZM43.2705 27.5947H51.3786V20.5677H43.2705V27.5947Z" fill="#6D28D9"/>
<path d="M31.3156 23.5179H28.8237V22.4368H31.3151C31.3853 22.4414 31.4557 22.4315 31.522 22.4077C31.5883 22.384 31.649 22.3469 31.7003 22.2988C31.7517 22.2507 31.7926 22.1925 31.8206 22.1279C31.8486 22.0633 31.863 21.9937 31.863 21.9233C31.863 21.8529 31.8486 21.7833 31.8206 21.7187C31.7926 21.6541 31.7517 21.596 31.7003 21.5478C31.649 21.4997 31.5883 21.4626 31.522 21.4389C31.4557 21.4151 31.3853 21.4052 31.3151 21.4098H28.8237V20.3287H31.3151C31.5294 20.3208 31.7432 20.3562 31.9435 20.4328C32.1439 20.5094 32.3267 20.6256 32.4812 20.7744C32.6356 20.9233 32.7584 21.1017 32.8423 21.2991C32.9262 21.4965 32.9695 21.7088 32.9695 21.9233C32.9695 22.1378 32.9262 22.3501 32.8423 22.5475C32.7584 22.7449 32.6356 22.9234 32.4812 23.0722C32.3267 23.2211 32.1439 23.3372 31.9435 23.4138C31.7432 23.4904 31.5294 23.5258 31.3151 23.5179H31.3156Z" fill="#6D28D9"/>
<path d="M40.188 27.5947H42.9404V28.6758H40.188V27.5947Z" fill="#6D28D9"/>
<path d="M47.0542 20.0271H48.1353V22.1893H47.0542V20.0271Z" fill="#6D28D9"/>
</svg>
