<?xml version="1.0" encoding="UTF-8" standalone="no"?>
<svg
   xmlns:dc="http://purl.org/dc/elements/1.1/"
   xmlns:cc="http://creativecommons.org/ns#"
   xmlns:rdf="http://www.w3.org/1999/02/22-rdf-syntax-ns#"
   xmlns:svg="http://www.w3.org/2000/svg"
   xmlns="http://www.w3.org/2000/svg"
   viewBox="0 0 666.66669 666.66669"
   height="666.66669"
   width="666.66669"
   xml:space="preserve"
   id="svg2"
   version="1.1"><metadata
     id="metadata8"><rdf:RDF><cc:Work
         rdf:about=""><dc:format>image/svg+xml</dc:format><dc:type
           rdf:resource="http://purl.org/dc/dcmitype/StillImage" /></cc:Work></rdf:RDF></metadata><defs
     id="defs6"><clipPath
       id="clipPath18"
       clipPathUnits="userSpaceOnUse"><path
         id="path16"
         d="M 0,500 H 500 V 0 H 0 Z" /></clipPath><clipPath
       id="clipPath26"
       clipPathUnits="userSpaceOnUse"><path
         id="path24"
         d="M 5.87111,294.383 H 202.296 V -2.23711 H 5.87111 Z" /></clipPath><clipPath
       id="clipPath50"
       clipPathUnits="userSpaceOnUse"><path
         id="path48"
         d="M 141.972,398.394 H 358.028 V 91.5089 H 141.972 Z" /></clipPath><clipPath
       id="clipPath126"
       clipPathUnits="userSpaceOnUse"><path
         id="path124"
         d="M 0,500 H 500 V 0 H 0 Z" /></clipPath><clipPath
       id="clipPath134"
       clipPathUnits="userSpaceOnUse"><path
         id="path132"
         d="m 141.667,242.794 h 60.629 v -69.79 h -60.629 z" /></clipPath><clipPath
       id="clipPath150"
       clipPathUnits="userSpaceOnUse"><path
         id="path148"
         d="M 252.315,215.028 H 482.216 V 0 H 252.315 Z" /></clipPath><clipPath
       id="clipPath182"
       clipPathUnits="userSpaceOnUse"><path
         id="path180"
         d="m 303.698,237.271 c -5.812,-1.264 -18.193,-27.29 -20.721,-31.84 v 0 c -2.526,-4.547 -14.908,-15.137 -14.908,-15.137 v 0 c 3.033,-8.568 13.518,-4.951 16.916,-2.649 v 0 c 3.397,2.3 10.159,9.701 10.159,9.701 v 0 c 5.092,0.506 11.821,9.349 11.821,9.349 v 0 c 18.709,-8.872 22.002,-14.403 22.254,-26.026 v 0 c 0.253,-11.623 -12.634,-22.335 -12.634,-22.335 v 0 c -4.296,1.922 -9.62,1.109 -9.62,1.109 v 0 c -4.061,4.297 -13.083,3.855 -13.083,3.855 v 0 c 2.313,9.31 -1.351,12.741 -3.663,15.096 v 0 c -4.996,5.092 -22.537,4.669 -19.504,-5.509 v 0 c 3.032,-10.175 -6.381,-11.354 -3.048,-18.495 v 0 c 6.602,-14.145 11.52,-5.054 24.835,-20.067 v 0 c 13.313,-15.014 38.234,-24.658 48.593,-27.943 v 0 c 10.36,-3.285 18.699,-3.032 31.08,-20.973 v 0 C 384.556,67.467 407.046,0 407.046,0 v 0 h 89.197 c 0,0 -38.408,58.623 -54.074,80.859 v 0 c -15.667,22.236 -22.489,32.596 -27.796,41.946 v 0 c -5.306,9.348 -10.865,29.563 -19.962,48.262 v 0 c -9.097,18.699 -18.951,35.881 -24.509,42.691 v 0 c -5.56,6.81 -27.038,1.781 -34.619,6.077 v 0 c -7.264,4.117 -24.274,17.515 -30.794,17.514 v 0 c -0.284,0 -0.549,-0.026 -0.791,-0.078" /></clipPath><clipPath
       id="clipPath190"
       clipPathUnits="userSpaceOnUse"><path
         id="path188"
         d="M 234.293,196.128 H 400.481 V 134.523 H 234.293 Z" /></clipPath><clipPath
       id="clipPath206"
       clipPathUnits="userSpaceOnUse"><path
         id="path204"
         d="M 0,500 H 500 V 0 H 0 Z" /></clipPath><clipPath
       id="clipPath214"
       clipPathUnits="userSpaceOnUse"><path
         id="path212"
         d="M 299.481,127.692 H 413.587 V 0 H 299.481 Z" /></clipPath><clipPath
       id="clipPath286"
       clipPathUnits="userSpaceOnUse"><path
         id="path284"
         d="m 328.107,224.455 h 34.462 v -16.854 h -34.462 z" /></clipPath><clipPath
       id="clipPath302"
       clipPathUnits="userSpaceOnUse"><path
         id="path300"
         d="m 303.71,212.002 h 3.255 v -7.67 h -3.255 z" /></clipPath><clipPath
       id="clipPath318"
       clipPathUnits="userSpaceOnUse"><path
         id="path316"
         d="m 267.667,161.533 h 9.35 v -8.531 h -9.35 z" /></clipPath><clipPath
       id="clipPath338"
       clipPathUnits="userSpaceOnUse"><path
         id="path336"
         d="m 181.129,253.147 c -14.229,-3.195 -22.23,-11.3 -25.106,-14.777 v 0 c -0.212,-0.251 -0.42,-0.51 -0.625,-0.78 v 0 c -0.41,-0.536 -0.612,-0.847 -0.612,-0.847 v 0 c 0,0 -8.912,-1.476 -11.972,-6.532 v 0 c 0,0 -5.376,-0.331 -9.168,-3.119 v 0 c 0,0 -5.259,2.743 -9.986,7.367 v 0 c -13.322,-18.617 -16.356,-44.59 -7.304,-65.65 v 0 c 1.413,0.736 2.85,1.482 4.317,2.322 v 0 c 9.432,5.401 31.749,20.096 41.588,37.584 v 0 c 8.026,14.268 13.982,11.679 17.785,18.503 v 0 l 0.003,0.002 c 4.238,4.476 5.211,8.405 14.583,13.956 v 0 c 4.52,2.677 0.21,12.403 -9.75,12.405 v 0 c -1.175,0 -2.426,-0.135 -3.753,-0.434" /></clipPath><clipPath
       id="clipPath346"
       clipPathUnits="userSpaceOnUse"><path
         id="path344"
         d="m 176.153,248.233 h 18.163 v -14.721 h -18.163 z" /></clipPath><clipPath
       id="clipPath362"
       clipPathUnits="userSpaceOnUse"><path
         id="path360"
         d="m 169.672,230.012 h 10.974 v -7.367 h -10.974 z" /></clipPath><clipPath
       id="clipPath378"
       clipPathUnits="userSpaceOnUse"><path
         id="path376"
         d="M 0,500 H 500 V 0 H 0 Z" /></clipPath><clipPath
       id="clipPath386"
       clipPathUnits="userSpaceOnUse"><path
         id="path384"
         d="M 59.6667,184.734 H 140.5 V 0 H 59.6667 Z" /></clipPath></defs><g
     transform="matrix(1.3333333,0,0,-1.3333333,0,666.66667)"
     id="g10"><g
       id="g12"><g
         clip-path="url(#clipPath18)"
         id="g14"><g
           id="g20"><g
             id="g22" /><g
             id="g34"><g
               style="opacity:0.10000598"
               id="g32"
               clip-path="url(#clipPath26)"><g
                 id="g30"
                 transform="translate(148.6846,220.2129)"><path
                   id="path28"
                   style="fill:#000000;fill-opacity:1;fill-rule:nonzero;stroke:none"
                   d="m 0,0 c 0,0 -5.375,-0.32 -9.167,-3.014 0,0 -5.26,2.65 -9.986,7.118 -0.375,0.354 -0.824,0.731 -1.318,1.125 5.873,4.739 11.503,10.578 14.658,13.304 C 0.482,23.974 4.433,10.434 12.214,6.647 12.059,6.438 11.972,6.312 11.972,6.312 11.972,6.312 3.061,4.887 0,0 m 38.315,22.163 c -3.827,-0.831 -7.19,-2.011 -10.138,-3.349 -2.522,0.804 -6.341,3.252 -10.391,6.312 3.668,1.531 7.231,4.594 9.283,7.201 3.142,0.692 5.882,2.578 6.426,6.688 0,0 -14.341,7.472 -17.772,11.251 -3.431,3.78 -23.035,23.904 -28.983,23.904 -18.381,0 -55.742,-28.163 -59.736,-35.73 -3.994,-7.567 -9.993,-25.808 -14.931,-45.326 -4.938,-19.518 -6.098,-39.746 -9.308,-49.66 -3.209,-9.913 -7.688,-21.092 -18.299,-45.293 -5.878,-13.405 -17.806,-44.911 -27.279,-70.355 v -50.256 h 59.666 12.01 c 4.034,31.487 16.194,123.129 23.053,139.205 7.016,16.444 13.958,20.047 21.627,23.912 1.413,0.713 2.85,1.434 4.316,2.245 0.289,0.159 0.59,0.328 0.902,0.504 0.155,0.088 0.322,0.184 0.483,0.276 0.16,0.091 0.315,0.179 0.48,0.275 0.253,0.145 0.518,0.3 0.782,0.455 0.077,0.046 0.151,0.088 0.229,0.134 0.304,0.178 0.618,0.365 0.936,0.555 0.047,0.029 0.092,0.054 0.139,0.083 0.35,0.21 0.71,0.428 1.076,0.651 0.014,0.009 0.029,0.018 0.044,0.027 4.231,2.586 9.457,6.058 14.757,10.185 v 0 c 8.252,6.425 16.674,14.436 21.76,23.172 8.027,13.787 13.983,11.285 17.785,17.878 10e-4,10e-4 0.003,0.002 0.003,0.003 4.239,4.325 5.212,8.121 14.583,13.485 5.054,2.892 -0.927,14.298 -13.503,11.568" /></g></g></g></g><g
           transform="translate(172.5,249.3906)"
           id="g36"><path
             id="path38"
             style="fill:#d89371;fill-opacity:1;fill-rule:nonzero;stroke:none"
             d="M 0,0 C -2.302,0 -6.927,2.935 -11.901,6.824 -4.792,9.893 1.936,18.922 -2,18.922 c -5.236,0 -22.5,15.187 -28.528,22.25 C -36.557,48.235 -62.5,33.109 -69,23.723 c 0,0 -8,-20.114 0,-25.114 0.002,-10e-4 0.004,-0.002 0.006,-0.003 -1.694,-6.346 -3.123,-15.721 1.994,-18.919 8,-5 25,14.5 31.5,20.313 C -29,5.813 -25,-9.313 -16.701,-12.649 -8.402,-15.985 5.236,0 0,0" /></g><g
           transform="translate(158.5361,282.231)"
           id="g40"><path
             id="path42"
             style="fill:#edb08e;fill-opacity:1;fill-rule:nonzero;stroke:none"
             d="m 0,0 c -3.431,3.912 -23.035,24.738 -28.982,24.738 -18.381,0 -55.743,-29.145 -59.737,-36.976 -3.993,-7.831 -9.993,-26.709 -14.93,-46.908 -4.938,-20.199 -6.099,-41.132 -9.309,-51.392 -3.209,-10.259 -7.688,-21.828 -18.299,-46.874 -5.878,-13.873 -17.805,-46.478 -27.279,-72.809 v -52.01 h 71.676 c 4.034,32.585 16.194,127.425 23.053,144.063 7.016,17.017 13.958,20.745 21.627,24.746 5.644,21.921 5.644,32.691 7.304,65.65 -3.218,3.148 -11.592,7.918 -12.487,12.541 -2.211,11.414 -7.673,21.313 15.327,34.838 0,0 16.771,-10.664 21.854,-10.082 0,0 8.174,-5.804 11.981,-7.335 3.806,-1.53 14.82,-2.849 15.973,6.166 0,0 -14.341,7.733 -17.772,11.644" /></g><g
           id="g44"><g
             id="g46" /><g
             id="g58"><g
               style="opacity:0.10000598"
               id="g56"
               clip-path="url(#clipPath50)"><g
                 id="g54"
                 transform="translate(344.4766,91.5088)"><path
                   id="path52"
                   style="fill:#000000;fill-opacity:1;fill-rule:nonzero;stroke:none"
                   d="m 0,0 h -188.953 c -7.484,0 -13.552,6.067 -13.552,13.552 v 279.781 c 0,7.485 6.068,13.553 13.552,13.553 H 0 c 7.484,0 13.552,-6.068 13.552,-13.553 V 13.552 C 13.552,6.067 7.484,0 0,0" /></g></g></g></g><g
           transform="translate(344.4766,97.4209)"
           id="g60"><path
             id="path62"
             style="fill:#00a8a8;fill-opacity:1;fill-rule:nonzero;stroke:none"
             d="m 0,0 h -188.953 c -7.484,0 -13.552,6.067 -13.552,13.552 v 279.781 c 0,7.485 6.068,13.552 13.552,13.552 H 0 c 7.484,0 13.552,-6.067 13.552,-13.552 V 13.552 C 13.552,6.067 7.484,0 0,0" /></g><path
           id="path64"
           style="fill:#ffffff;fill-opacity:1;fill-rule:nonzero;stroke:none"
           d="M 345.52,108.505 H 154.481 V 393.222 H 345.52 Z" /><path
           id="path66"
           style="fill:#b3b3b3;fill-opacity:1;fill-rule:nonzero;stroke:none"
           d="m 326.5,332.399 h -116 V 342 h 116 z" /><path
           id="path68"
           style="fill:#d6d6d6;fill-opacity:1;fill-rule:nonzero;stroke:none"
           d="m 326.5,314.95 h -116 v 9.601 h 116 z" /><path
           id="path70"
           style="fill:#d6d6d6;fill-opacity:1;fill-rule:nonzero;stroke:none"
           d="m 326.5,297.5 h -154 v 9.601 h 154 z" /><g
           transform="translate(210.5884,393.2222)"
           id="g72"><path
             id="path74"
             style="fill:#d6d6d6;fill-opacity:1;fill-rule:nonzero;stroke:none"
             d="m 0,0 c 0.06,-2.68 2.241,-4.836 4.935,-4.836 h 68.953 c 2.695,0 4.875,2.156 4.935,4.836 z" /></g><g
           transform="translate(250,413.4141)"
           id="g76"><path
             id="path78"
             style="fill:#d6d6d6;fill-opacity:1;fill-rule:nonzero;stroke:none"
             d="m 0,0 c -2.313,0 -4.189,1.876 -4.189,4.189 0,2.314 1.876,4.189 4.189,4.189 2.313,0 4.189,-1.875 4.189,-4.189 C 4.189,1.876 2.313,0 0,0 M 34.477,4.189 H 10.66 C 10.66,10.077 5.888,14.85 0,14.85 c -5.887,0 -10.66,-4.773 -10.66,-10.661 h -23.817 c -2.731,0 -4.945,-2.214 -4.945,-4.945 v -16.703 c 0,-2.732 2.214,-4.946 4.945,-4.946 h 68.954 c 2.731,0 4.946,2.214 4.946,4.946 v 16.703 c 0,2.731 -2.215,4.945 -4.946,4.945" /></g><g
           transform="translate(210.5776,400.3716)"
           id="g80"><path
             id="path82"
             style="fill:#cccccc;fill-opacity:1;fill-rule:nonzero;stroke:none"
             d="m 0,0 v -4.417 c 0,-2.731 2.214,-4.946 4.945,-4.946 h 68.954 c 2.731,0 4.946,2.215 4.946,4.946 V 0 Z" /></g><path
           id="path84"
           style="fill:#d6d6d6;fill-opacity:1;fill-rule:nonzero;stroke:none"
           d="M 201.842,342 H 172.5 v -27.05 h 29.342 z m -5,-22.05 H 177.5 V 337 h 19.342 z" /><path
           id="path86"
           style="fill:#b3b3b3;fill-opacity:1;fill-rule:nonzero;stroke:none"
           d="m 326.5,271.763 h -116 v 9.601 h 116 z" /><path
           id="path88"
           style="fill:#d6d6d6;fill-opacity:1;fill-rule:nonzero;stroke:none"
           d="m 326.5,254.313 h -116 v 9.601 h 116 z" /><path
           id="path90"
           style="fill:#d6d6d6;fill-opacity:1;fill-rule:nonzero;stroke:none"
           d="m 326.5,236.863 h -154 v 9.601 h 154 z" /><path
           id="path92"
           style="fill:#d6d6d6;fill-opacity:1;fill-rule:nonzero;stroke:none"
           d="m 241,170.706 h -68.5 v -9.601 H 241 Z" /><path
           id="path94"
           style="fill:#d6d6d6;fill-opacity:1;fill-rule:nonzero;stroke:none"
           d="m 210,153.863 h -37.5 v -9.602 H 210 Z" /><path
           id="path96"
           style="fill:#d6d6d6;fill-opacity:1;fill-rule:nonzero;stroke:none"
           d="m 326.787,170.706 h -68.5 v -9.601 h 68.5 z" /><path
           id="path98"
           style="fill:#d6d6d6;fill-opacity:1;fill-rule:nonzero;stroke:none"
           d="m 295.787,153.863 h -37.5 v -9.602 h 37.5 z" /><path
           id="path100"
           style="fill:#d6d6d6;fill-opacity:1;fill-rule:nonzero;stroke:none"
           d="M 201.842,281.363 H 172.5 v -27.05 h 29.342 z m -5,-22.05 H 177.5 v 17.05 h 19.342 z" /><path
           id="path102"
           style="fill:#b3b3b3;fill-opacity:1;fill-rule:nonzero;stroke:none"
           d="m 326.5,211.286 h -154 v 9.44 h 154 z" /><path
           id="path104"
           style="fill:#d6d6d6;fill-opacity:1;fill-rule:nonzero;stroke:none"
           d="M 241.208,204.582 H 172.5 v -27.05 h 68.708 z m -5,-22.05 H 177.5 v 17.05 h 58.708 z" /><path
           id="path106"
           style="fill:#d6d6d6;fill-opacity:1;fill-rule:nonzero;stroke:none"
           d="m 326.5,204.582 h -68.709 v -27.05 H 326.5 Z m -5,-22.05 h -58.709 v 17.05 H 321.5 Z" /><g
           transform="translate(204.4082,341.0474)"
           id="g108"><path
             id="path110"
             style="fill:none;stroke:#39b54a;stroke-width:5.79199982;stroke-linecap:round;stroke-linejoin:round;stroke-miterlimit:10;stroke-dasharray:none;stroke-opacity:1"
             d="m 0,0 -17.296,-17.296 -9.02,9.021" /></g><g
           transform="translate(204.4082,281.3633)"
           id="g112"><path
             id="path114"
             style="fill:none;stroke:#39b54a;stroke-width:5.79199982;stroke-linecap:round;stroke-linejoin:round;stroke-miterlimit:10;stroke-dasharray:none;stroke-opacity:1"
             d="m 0,0 -17.296,-17.296 -9.02,9.021" /></g></g></g><text
       id="text118"
       style="font-variant:normal;font-weight:bold;font-stretch:normal;font-size:13.72049999px;font-family:Montserrat;-inkscape-font-specification:Montserrat-Bold;writing-mode:lr-tb;fill:#808080;fill-opacity:1;fill-rule:nonzero;stroke:none"
       transform="matrix(1,0,0,-1,171.981,359.458)"><tspan
         id="tspan116"
         y="0"
         x="0 10.084567 19.263582 29.842087 34.342411 42.957512 51.436783 61.521351 71.551033 80.030304 84.530632 96.110733 107.19689 111.0798 119.75115 131.33125 141.41582">REGISTRATION FORM</tspan></text>
<g
       id="g120"><g
         clip-path="url(#clipPath126)"
         id="g122"><g
           id="g128"><g
             id="g130" /><g
             id="g142"><g
               style="opacity:0.10000598"
               id="g140"
               clip-path="url(#clipPath134)"><g
                 id="g138"
                 transform="translate(187,242.376)"><path
                   id="path136"
                   style="fill:#000000;fill-opacity:1;fill-rule:nonzero;stroke:none"
                   d="m 0,0 c -3.828,-0.831 -7.19,-2.011 -10.139,-3.349 -1.497,0.478 -3.459,1.544 -5.649,2.966 -1.698,-1.466 -3.434,-2.886 -5.221,-4.237 -3.109,-2.352 -6.696,-4.918 -10.545,-6.408 1.628,-1.822 3.408,-3.493 5.453,-4.488 -0.156,-0.209 -0.243,-0.335 -0.243,-0.335 0,0 -8.911,-1.425 -11.971,-6.312 0,0 -3.623,-0.219 -7.018,-1.786 v -25.668 h 0.336 v -19.755 c 1.439,1.038 2.898,2.12 4.368,3.266 h 10e-4 c 8.252,6.425 16.673,14.436 21.76,23.172 8.027,13.787 13.983,11.285 17.785,17.878 10e-4,0.001 0.002,0.002 0.003,0.003 4.238,4.324 5.211,8.121 14.583,13.485 C 18.556,-8.676 12.575,2.729 0,0" /></g></g></g></g><g
           id="g144"><g
             id="g146" /><g
             id="g158"><g
               style="opacity:0.10000598"
               id="g156"
               clip-path="url(#clipPath150)"><g
                 id="g154"
                 transform="translate(293.8828,141.3242)"><path
                   id="path152"
                   style="fill:#000000;fill-opacity:1;fill-rule:nonzero;stroke:none"
                   d="M 0,0 C 0.997,3.994 0.88,6.896 0.243,9.1 L 28.427,0.984 C 25.993,-2.002 23.679,-4.096 22.943,-4.734 22.937,-4.739 22.931,-4.745 22.925,-4.751 22.856,-4.81 22.8,-4.858 22.763,-4.89 h -0.001 c -0.039,-0.034 -0.06,-0.05 -0.06,-0.05 -0.007,0.003 -0.014,0.004 -0.019,0.007 -0.274,0.121 -0.55,0.231 -0.829,0.33 -0.098,0.036 -0.197,0.064 -0.295,0.096 -0.19,0.063 -0.38,0.126 -0.571,0.181 -0.114,0.032 -0.227,0.058 -0.342,0.088 -0.177,0.046 -0.354,0.092 -0.532,0.131 -0.114,0.025 -0.225,0.045 -0.339,0.068 -0.179,0.036 -0.358,0.071 -0.536,0.101 -0.104,0.017 -0.208,0.032 -0.311,0.046 -0.188,0.029 -0.372,0.055 -0.556,0.077 -0.089,0.01 -0.175,0.019 -0.263,0.028 -0.201,0.021 -0.399,0.04 -0.595,0.055 -0.063,0.004 -0.123,0.008 -0.185,0.012 -0.221,0.015 -0.435,0.027 -0.646,0.034 -0.035,10e-4 -0.068,0.003 -0.101,0.004 -0.241,0.008 -0.474,0.013 -0.697,0.013 H 15.884 C 14.23,-3.665 13.082,-3.836 13.082,-3.836 9.021,0.439 0,0 0,0 m 8.765,23.305 c 0.722,-1.663 1.758,-2.8 2.973,-3.542 l -7.749,1.919 c 1.793,0.351 3.477,0.976 4.776,1.623 m 16.651,-1.978 c 2.066,1.394 5.372,4.659 7.649,7.009 0.248,-0.478 0.47,-0.964 0.67,-1.459 -3.616,-4.299 -7.87,-8.624 -7.87,-8.624 0.257,-0.863 0.58,-1.596 0.953,-2.225 l -10.33,2.558 c 3.532,0.032 7.174,1.56 8.928,2.741 M -8.236,24.71 c 0.544,0.413 1.148,0.922 1.777,1.478 0.382,-0.9 0.856,-1.648 1.399,-2.265 z M 5.599,-35.438 v -10e-4 c 0.045,-0.037 0.09,-0.072 0.135,-0.108 0.43,-0.348 0.866,-0.692 1.306,-1.033 0.171,-0.132 0.345,-0.262 0.517,-0.393 0.319,-0.243 0.639,-0.484 0.963,-0.723 0.197,-0.146 0.394,-0.289 0.592,-0.433 0.309,-0.224 0.619,-0.445 0.931,-0.665 0.202,-0.143 0.403,-0.284 0.606,-0.425 0.324,-0.223 0.649,-0.445 0.976,-0.666 0.19,-0.128 0.38,-0.258 0.571,-0.385 0.389,-0.257 0.78,-0.512 1.172,-0.764 0.13,-0.084 0.259,-0.17 0.389,-0.253 0.516,-0.329 1.036,-0.654 1.557,-0.974 0.165,-0.102 0.332,-0.201 0.499,-0.302 0.365,-0.221 0.731,-0.442 1.098,-0.66 0.208,-0.123 0.416,-0.244 0.624,-0.365 0.329,-0.191 0.658,-0.382 0.988,-0.57 0.217,-0.124 0.435,-0.247 0.652,-0.369 0.33,-0.186 0.66,-0.369 0.99,-0.551 0.211,-0.115 0.421,-0.232 0.632,-0.347 0.361,-0.196 0.723,-0.388 1.084,-0.581 0.174,-0.093 0.348,-0.186 0.522,-0.278 0.529,-0.278 1.057,-0.551 1.583,-0.82 0.111,-0.056 0.221,-0.11 0.331,-0.167 0.425,-0.214 0.849,-0.427 1.272,-0.635 0.195,-0.097 0.389,-0.191 0.582,-0.285 0.338,-0.164 0.674,-0.328 1.01,-0.489 0.211,-0.1 0.421,-0.2 0.631,-0.299 0.323,-0.154 0.645,-0.304 0.965,-0.454 0.207,-0.095 0.413,-0.192 0.619,-0.286 0.333,-0.153 0.665,-0.303 0.995,-0.452 0.183,-0.083 0.368,-0.167 0.549,-0.248 0.429,-0.191 0.854,-0.379 1.277,-0.562 0.079,-0.036 0.16,-0.072 0.239,-0.106 0.498,-0.217 0.991,-0.427 1.48,-0.634 0.161,-0.067 0.319,-0.133 0.478,-0.2 0.332,-0.139 0.663,-0.276 0.99,-0.411 0.183,-0.075 0.363,-0.148 0.544,-0.222 0.301,-0.123 0.6,-0.243 0.896,-0.362 0.182,-0.072 0.363,-0.145 0.544,-0.216 0.294,-0.117 0.585,-0.231 0.873,-0.344 0.168,-0.065 0.337,-0.13 0.503,-0.195 0.328,-0.127 0.651,-0.25 0.971,-0.371 0.115,-0.043 0.232,-0.089 0.346,-0.131 0.433,-0.163 0.857,-0.32 1.272,-0.473 0.092,-0.033 0.179,-0.064 0.27,-0.097 0.32,-0.117 0.636,-0.231 0.944,-0.341 0.149,-0.053 0.292,-0.104 0.438,-0.155 0.248,-0.088 0.493,-0.174 0.733,-0.257 0.147,-0.052 0.291,-0.102 0.435,-0.15 0.233,-0.081 0.462,-0.159 0.686,-0.235 0.137,-0.046 0.273,-0.092 0.406,-0.137 0.24,-0.08 0.471,-0.156 0.701,-0.231 0.099,-0.033 0.203,-0.067 0.302,-0.1 0.326,-0.105 0.642,-0.208 0.944,-0.302 10.36,-3.27 18.699,-3.019 31.08,-20.875 7.859,-11.334 19.788,-42.522 27.455,-63.798 h 82.586 c -12.595,18.977 -30.523,45.816 -40.047,59.271 -15.667,22.132 -22.489,32.444 -27.796,41.749 -3.244,5.691 -6.585,15.427 -10.77,26.387 0.053,0.15 0.103,0.303 0.146,0.461 0.75,2.774 -0.501,5.507 -2.779,6.273 -1.979,4.925 -4.143,9.973 -6.559,14.915 -9.096,18.612 -18.951,35.714 -24.509,42.492 -3.456,4.214 -13.062,3.874 -21.658,4.041 l -0.143,0.003 c -0.775,0.015 -1.538,0.036 -2.289,0.064 -0.088,0.003 -0.177,0.005 -0.264,0.009 -0.327,0.013 -0.649,0.029 -0.971,0.046 -0.088,0.004 -0.177,0.008 -0.265,0.012 -0.339,0.019 -0.672,0.041 -1.004,0.065 -0.067,0.005 -0.135,0.009 -0.201,0.014 -0.32,0.023 -0.632,0.051 -0.943,0.082 -0.074,0.006 -0.151,0.011 -0.224,0.019 -0.271,0.027 -0.534,0.06 -0.796,0.091 -0.11,0.014 -0.222,0.024 -0.33,0.038 -0.268,0.035 -0.526,0.076 -0.785,0.117 -0.095,0.015 -0.195,0.028 -0.29,0.043 -0.238,0.04 -0.466,0.087 -0.696,0.133 -0.107,0.021 -0.22,0.04 -0.325,0.062 -0.227,0.049 -0.44,0.106 -0.657,0.161 -0.101,0.025 -0.206,0.047 -0.305,0.074 -0.196,0.054 -0.382,0.116 -0.569,0.176 -0.109,0.034 -0.223,0.065 -0.327,0.101 -0.158,0.055 -0.301,0.117 -0.451,0.177 -0.125,0.049 -0.256,0.094 -0.376,0.146 -0.262,0.117 -0.513,0.242 -0.75,0.374 -0.234,0.133 -0.48,0.276 -0.734,0.426 -0.107,0.064 -0.223,0.135 -0.333,0.202 -0.151,0.091 -0.3,0.18 -0.457,0.277 -0.139,0.085 -0.286,0.178 -0.429,0.267 -0.138,0.087 -0.273,0.17 -0.416,0.261 -0.172,0.108 -0.351,0.225 -0.529,0.338 -0.119,0.077 -0.235,0.15 -0.357,0.229 -0.19,0.123 -0.387,0.251 -0.582,0.379 -0.12,0.078 -0.237,0.155 -0.359,0.235 -0.216,0.141 -0.438,0.289 -0.661,0.436 -0.103,0.068 -0.202,0.134 -0.306,0.202 -0.251,0.167 -0.508,0.338 -0.765,0.511 -0.081,0.054 -0.16,0.107 -0.243,0.161 -0.33,0.222 -0.665,0.447 -1.004,0.675 C 25.62,66.656 14.198,74.574 9.815,73.626 4.003,72.369 -8.378,46.464 -10.905,41.938 c -1.791,-3.21 -8.532,-9.438 -12.306,-12.793 -0.169,-0.094 -0.325,-0.219 -0.443,-0.394 -0.696,-0.614 -1.265,-1.109 -1.642,-1.436 l -8.189,0.917 c -0.773,0.191 -1.511,0.283 -2.167,0.196 -0.437,-0.059 -0.837,-0.197 -1.186,-0.438 -0.175,-0.12 -0.337,-0.266 -0.483,-0.441 -0.023,-0.028 -0.039,-0.067 -0.062,-0.096 l -2.661,0.299 c -0.67,0.166 -1.261,0.101 -1.474,-0.685 -0.211,-0.785 0.267,-1.135 0.931,-1.327 l 2.452,-1.07 c 0.189,-1.418 1.41,-2.168 2.979,-2.619 l 8.59,-3.752 -0.3,-1.112 c -0.187,-0.689 0.137,-1.375 0.723,-1.532 l 2.574,-0.689 c 0.481,-0.129 0.974,0.15 1.244,0.632 l 0.343,-0.099 c -1.378,-1.393 -1.965,-3.351 -1.186,-5.955 3.032,-10.129 -6.381,-11.303 -3.048,-18.41 6.602,-14.078 11.521,-5.03 24.835,-19.973 2.077,-2.331 4.437,-4.532 6.98,-6.599" /></g></g></g></g><g
           transform="translate(326.0312,206.1143)"
           id="g160"><path
             id="path162"
             style="fill:#d89371;fill-opacity:1;fill-rule:nonzero;stroke:none"
             d="m 0,0 v 6.478 h -19.818 c -2.218,-3.606 -3.481,-6.112 -4.117,-7.256 -2.526,-4.548 -14.908,-15.138 -14.908,-15.138 3.032,-8.567 13.519,-4.951 16.916,-2.649 3.397,2.3 10.159,9.701 10.159,9.701 C -11.443,-8.832 3.748,1.656 0,0" /></g><g
           transform="translate(341.2266,203.291)"
           id="g164"><path
             id="path166"
             style="fill:#d89371;fill-opacity:1;fill-rule:nonzero;stroke:none"
             d="m 0,0 v 9.301 h -18.024 c -3.364,-5.131 -5.121,-8.656 -5.911,-10.079 -2.527,-4.548 -14.908,-15.138 -14.908,-15.138 3.032,-8.567 13.519,-4.95 16.915,-2.649 3.397,2.3 10.159,9.701 10.159,9.701 C -11.444,-8.832 3.747,1.656 0,0" /></g><g
           transform="translate(352.2852,197.5527)"
           id="g168"><path
             id="path170"
             style="fill:#d89371;fill-opacity:1;fill-rule:nonzero;stroke:none"
             d="m 0,0 v 15.039 h -11.753 c -5.069,-8.242 -7.41,-13.914 -8.296,-15.817 -2.117,-4.548 -12.488,-15.138 -12.488,-15.138 2.54,-8.567 11.324,-4.95 14.17,-2.649 2.845,2.3 8.51,9.701 8.51,9.701 C -9.586,-8.832 3.14,1.656 0,0" /></g><g
           transform="translate(268.0693,190.2939)"
           id="g172"><path
             id="path174"
             style="fill:#edb08e;fill-opacity:1;fill-rule:nonzero;stroke:none"
             d="m 0,0 c 0,0 12.382,10.59 14.908,15.138 2.528,4.549 14.908,30.575 20.721,31.839 5.811,1.262 24.005,-13.14 31.585,-17.436 7.581,-4.296 29.058,0.732 34.618,-6.077 5.559,-6.81 15.413,-23.992 24.51,-42.691 9.096,-18.699 14.656,-38.914 19.962,-48.262 5.306,-9.35 12.129,-19.71 27.796,-41.947 15.666,-22.235 54.074,-80.858 54.074,-80.858 h -89.197 c 0,0 -22.49,67.467 -34.872,85.407 -12.38,17.941 -20.719,17.688 -31.08,20.973 -10.359,3.285 -35.279,12.93 -48.592,27.943 -13.315,15.013 -18.234,5.922 -24.835,20.067 -3.333,7.141 6.08,8.32 3.048,18.496 -3.033,10.177 14.508,10.599 19.504,5.509 2.312,-2.356 5.976,-5.787 3.663,-15.097 0,0 9.022,0.441 13.083,-3.855 0,0 5.324,0.813 9.62,-1.109 0,0 12.886,10.712 12.633,22.335 -0.252,11.623 -3.545,17.153 -22.253,26.026 0,0 -6.73,-8.843 -11.821,-9.349 0,0 -6.763,-7.401 -10.159,-9.701 C 13.519,-4.95 3.032,-8.567 0,0" /></g></g></g><g
       id="g176"><g
         clip-path="url(#clipPath182)"
         id="g178"><g
           id="g184"><g
             id="g186" /><g
             id="g198"><g
               style="opacity:0.10000598"
               id="g196"
               clip-path="url(#clipPath190)"><g
                 id="g194"
                 transform="translate(397.1387,146.1934)"><path
                   id="path192"
                   style="fill:#000000;fill-opacity:1;fill-rule:nonzero;stroke:none"
                   d="m 0,0 -7.856,2.498 c -0.031,0.106 -0.063,0.211 -0.097,0.316 -0.032,0.103 -0.069,0.202 -0.105,0.302 -0.051,0.143 -0.102,0.285 -0.16,0.424 -0.045,0.106 -0.095,0.209 -0.144,0.313 -0.059,0.127 -0.116,0.256 -0.181,0.38 -0.112,0.213 -0.233,0.42 -0.363,0.621 -0.058,0.089 -0.122,0.172 -0.184,0.258 -0.086,0.122 -0.171,0.244 -0.263,0.36 -0.068,0.086 -0.141,0.166 -0.212,0.248 -0.095,0.108 -0.191,0.216 -0.291,0.318 -0.076,0.077 -0.154,0.15 -0.233,0.225 -0.106,0.098 -0.215,0.195 -0.327,0.287 -0.081,0.067 -0.162,0.132 -0.246,0.195 -0.121,0.091 -0.246,0.176 -0.373,0.258 -0.082,0.055 -0.164,0.109 -0.249,0.159 -0.145,0.086 -0.295,0.163 -0.447,0.237 -0.075,0.038 -0.147,0.079 -0.224,0.113 -0.232,0.104 -0.469,0.198 -0.716,0.276 l -56.499,17.96 c 0.039,0.671 -0.292,1.28 -0.867,1.476 l -3.484,1.18 c -0.61,0.206 -1.288,-0.122 -1.653,-0.748 l -62.63,19.908 c 0.05,0.616 -0.233,1.182 -0.759,1.361 l -2.819,0.955 c -0.641,0.217 -1.37,-0.222 -1.627,-0.981 l -0.414,-1.222 -10.308,1.832 c -1.412,0.449 -2.737,0.581 -3.752,-0.031 -0.235,-0.142 -0.447,-0.336 -0.645,-0.562 l -2.943,0.522 c -0.735,0.235 -1.398,0.205 -1.691,-0.66 -0.292,-0.863 0.216,-1.29 0.941,-1.551 l 2.655,-1.373 c 0.108,-1.6 1.416,-2.527 3.131,-3.144 l 9.3,-4.811 -0.414,-1.222 c -0.257,-0.759 0.055,-1.55 0.696,-1.767 l 2.818,-0.955 c 0.528,-0.179 1.11,0.091 1.445,0.613 l 61.82,-22.252 c -0.091,-0.718 0.247,-1.391 0.857,-1.598 l 3.485,-1.181 c 0.575,-0.194 1.209,0.089 1.585,0.646 l 55.782,-20.079 c 2.376,-0.855 4.953,-0.289 7.038,1.275 l 2.224,-0.8 5.533,-1.992 c 2.677,-0.963 5.755,0.859 6.835,4.047 C 4.048,-4.179 2.712,-0.861 0,0" /></g></g></g></g></g></g><g
       id="g200"><g
         clip-path="url(#clipPath206)"
         id="g202"><g
           id="g208"><g
             id="g210" /><g
             id="g222"><g
               style="opacity:0.10000598"
               id="g220"
               clip-path="url(#clipPath214)"><g
                 id="g218"
                 transform="translate(345.1572,112.0234)"><path
                   id="path216"
                   style="fill:#000000;fill-opacity:1;fill-rule:nonzero;stroke:none"
                   d="m 0,0 c -6.056,2.069 -26.146,9.127 -45.676,15.669 13.755,-11.237 32.87,-18.54 41.614,-21.313 10.36,-3.285 18.699,-3.032 31.08,-20.972 12.381,-17.941 34.871,-85.407 34.871,-85.407 h 6.541 c 0,0 -24.969,70.078 -37.35,89.417 C 18.698,-3.269 10.36,-3.541 0,0" /></g></g></g></g><g
           transform="translate(394.041,146.3926)"
           id="g224"><path
             id="path226"
             style="fill:#7f7f7f;fill-opacity:1;fill-rule:nonzero;stroke:none"
             d="m 0,0 11.942,-3.455 c 2.734,-0.79 5.689,1.225 6.563,4.475 0.874,3.25 -0.672,6.475 -3.433,7.162 L 3.008,11.184 Z" /></g><g
           transform="translate(394.041,146.3926)"
           id="g228"><path
             id="path230"
             style="fill:#7f7f7f;fill-opacity:1;fill-rule:nonzero;stroke:none"
             d="m 0,0 11.942,-3.455 c 2.734,-0.79 5.689,1.225 6.563,4.475 0.874,3.25 -0.672,6.475 -3.433,7.162 L 3.008,11.184 Z" /></g><g
           transform="translate(394.041,146.3926)"
           id="g232"><path
             id="path234"
             style="fill:#7f7f7f;fill-opacity:1;fill-rule:nonzero;stroke:none"
             d="m 0,0 11.942,-3.455 c 2.734,-0.79 5.689,1.225 6.563,4.475 0.874,3.25 -0.672,6.475 -3.433,7.162 L 3.008,11.184 Z" /></g><g
           transform="translate(403.5986,149.8184)"
           id="g236"><path
             id="path238"
             style="fill:#666666;fill-opacity:1;fill-rule:nonzero;stroke:none"
             d="M 0,0 C 0.583,2.17 0.468,4.332 -0.192,6.176 L -6.55,7.758 -9.558,-3.426 -3.265,-5.246 C -1.769,-3.981 -0.584,-2.17 0,0" /></g><g
           transform="translate(244.6069,191.3701)"
           id="g240"><path
             id="path242"
             style="fill:#7f7f7f;fill-opacity:1;fill-rule:nonzero;stroke:none"
             d="M 0,0 3.495,-1.533 4.399,1.829 0.606,2.256 C -0.142,2.441 -0.802,2.369 -1.039,1.488 -1.275,0.607 -0.741,0.214 0,0" /></g><g
           transform="translate(250.6689,187.2324)"
           id="g244"><path
             id="path246"
             style="fill:#7f7f7f;fill-opacity:1;fill-rule:nonzero;stroke:none"
             d="M 0,0 10.743,-4.714 13.522,5.621 1.864,6.932 C -0.435,7.504 -2.463,7.281 -3.191,4.574 -3.919,1.868 -2.276,0.658 0,0" /></g><g
           transform="translate(262.6279,187.0381)"
           id="g248"><path
             id="path250"
             style="fill:#666666;fill-opacity:1;fill-rule:nonzero;stroke:none"
             d="m 0,0 1.563,5.815 -11.658,1.311 c -2.299,0.572 -4.327,0.35 -5.054,-2.357 -0.064,-0.237 -0.088,-0.449 -0.117,-0.664 z" /></g><g
           transform="translate(263.3379,180.4736)"
           id="g252"><path
             id="path254"
             style="fill:#7f7f7f;fill-opacity:1;fill-rule:nonzero;stroke:none"
             d="m 0,0 127.784,-36.967 c 4.235,-1.224 8.813,1.897 10.167,6.933 1.355,5.036 -1.04,10.033 -5.318,11.097 L 3.546,13.183 Z" /></g><g
           transform="translate(401.6309,152.4492)"
           id="g256"><path
             id="path258"
             style="fill:#666666;fill-opacity:1;fill-rule:nonzero;stroke:none"
             d="m 0,0 c 0.333,4.292 -1.955,8.166 -5.66,9.088 l -129.087,32.119 -1.246,-4.632 z" /></g><g
           transform="translate(348.7891,164.5596)"
           id="g260"><path
             id="path262"
             style="fill:#fbb03b;fill-opacity:1;fill-rule:nonzero;stroke:none"
             d="m 0,0 c -0.338,-1.257 0.393,-2.553 1.643,-2.914 l 41.622,-12.041 c 1.454,-0.421 3.026,0.651 3.491,2.38 0.465,1.729 -0.358,3.445 -1.826,3.81 L 2.883,1.697 C 1.619,2.012 0.338,1.257 0,0" /></g><g
           transform="translate(333.9287,178.2246)"
           id="g264"><path
             id="path266"
             style="fill:#fbb03b;fill-opacity:1;fill-rule:nonzero;stroke:none"
             d="m 0,0 3.552,-0.955 c 0.729,-0.196 1.132,-1.055 0.9,-1.917 l -4.01,-14.909 c -0.232,-0.863 -1.01,-1.403 -1.74,-1.207 l -3.553,0.956 c -0.728,0.196 -1.131,1.053 -0.899,1.916 l 4.01,14.91 C -1.509,-0.344 -0.729,0.196 0,0" /></g><g
           transform="translate(264.835,195.3223)"
           id="g268"><path
             id="path270"
             style="fill:#fbb03b;fill-opacity:1;fill-rule:nonzero;stroke:none"
             d="M 0,0 2.873,-0.772 C 3.526,-0.948 3.889,-1.718 3.68,-2.491 L 0.329,-14.953 c -0.208,-0.774 -0.907,-1.258 -1.561,-1.082 l -2.873,0.772 c -0.655,0.176 -1.016,0.946 -0.808,1.719 l 3.351,12.462 C -1.354,-0.309 -0.654,0.176 0,0" /></g><g
           transform="translate(296.1367,163.2607)"
           id="g272"><path
             id="path274"
             style="fill:#edb08e;fill-opacity:1;fill-rule:nonzero;stroke:none"
             d="m 0,0 c -1.35,0.075 -2.254,0.037 -2.254,0.037 2.313,9.311 -1.351,12.741 -3.663,15.097 -4.996,5.091 -22.537,4.668 -19.505,-5.509 3.032,-10.176 -6.381,-11.354 -3.048,-18.496 6.602,-14.145 11.521,-5.054 24.835,-20.066 1.129,-1.274 2.353,-2.503 3.635,-3.698 z" /></g><g
           transform="translate(296.1367,229.2061)"
           id="g276"><path
             id="path278"
             style="fill:#edb08e;fill-opacity:1;fill-rule:nonzero;stroke:none"
             d="m 0,0 c -5.531,-8.419 -11.491,-20.772 -13.159,-23.774 -2.527,-4.548 -14.908,-15.138 -14.908,-15.138 3.032,-8.567 13.518,-4.95 16.916,-2.65 3.396,2.301 10.159,9.702 10.159,9.702 0.324,0.032 0.656,0.109 0.992,0.207 z" /></g><g
           id="g280"><g
             id="g282" /><g
             id="g294"><g
               style="opacity:0.10000598"
               id="g292"
               clip-path="url(#clipPath286)"><g
                 id="g290"
                 transform="translate(328.1074,224.4551)"><path
                   id="path288"
                   style="fill:#000000;fill-opacity:1;fill-rule:nonzero;stroke:none"
                   d="m 0,0 v 0 c 0.231,-0.157 8.163,-7.021 26.609,-14.728 18.447,-7.707 -1.393,8.012 -1.393,8.012 l -0.001,0.001 C 18.212,-6.585 10.961,-6.766 7.176,-4.62 5.312,-3.564 2.805,-1.896 0,0" /></g></g></g></g><g
           id="g296"><g
             id="g298" /><g
             id="g310"><g
               style="opacity:0.10000598"
               id="g308"
               clip-path="url(#clipPath302)"><g
                 id="g306"
                 transform="translate(306.9648,206.6953)"><path
                   id="path304"
                   style="fill:#000000;fill-opacity:1;fill-rule:nonzero;stroke:none"
                   d="m 0,0 c 0,0 -2.321,2.021 -3.164,5.307 0,0 -0.579,-5.569 1.185,-7.67 z" /></g></g></g></g><g
           id="g312"><g
             id="g314" /><g
             id="g326"><g
               style="opacity:0.10000598"
               id="g324"
               clip-path="url(#clipPath318)"><g
                 id="g322"
                 transform="translate(267.667,154.3896)"><path
                   id="path320"
                   style="fill:#000000;fill-opacity:1;fill-rule:nonzero;stroke:none"
                   d="m 0,0 c 0,0 2.78,7.291 9.35,7.142 0,0 -7.988,-4.106 -8.668,-8.53 z" /></g></g></g></g><g
           transform="translate(181.1289,253.1475)"
           id="g328"><path
             id="path330"
             style="fill:#edb08e;fill-opacity:1;fill-rule:nonzero;stroke:none"
             d="m 0,0 c -14.228,-3.196 -22.23,-11.301 -25.106,-14.777 -0.212,-0.251 -0.42,-0.51 -0.624,-0.781 -0.411,-0.536 -0.614,-0.846 -0.614,-0.846 0,0 -8.911,-1.476 -11.971,-6.533 0,0 -5.376,-0.331 -9.168,-3.118 0,0 -5.259,2.743 -9.986,7.367 -13.322,-18.618 -16.356,-44.59 -7.304,-65.651 1.413,0.736 2.85,1.483 4.317,2.323 9.432,5.401 31.749,20.096 41.588,37.584 8.027,14.268 13.983,11.678 17.785,18.502 l 0.003,0.003 c 4.238,4.476 5.211,8.405 14.583,13.955 C 18.556,-8.979 12.575,2.825 0,0" /></g></g></g><g
       id="g332"><g
         clip-path="url(#clipPath338)"
         id="g334"><g
           id="g340"><g
             id="g342" /><g
             id="g354"><g
               style="opacity:0.10000598"
               id="g352"
               clip-path="url(#clipPath346)"><g
                 id="g350"
                 transform="translate(188.106,248.1191)"><path
                   id="path348"
                   style="fill:#ffffff;fill-opacity:1;fill-rule:nonzero;stroke:none"
                   d="m 0,0 c -6.399,-1.872 -13.137,-7.146 -11.776,-8.664 1.36,-1.519 7.678,-7.364 9.342,-5.621 1.663,1.742 10.585,5.367 8.259,9.428 C 3.5,-0.797 1.844,0.54 0,0" /></g></g></g></g><g
           id="g356"><g
             id="g358" /><g
             id="g370"><g
               style="opacity:0.10000598"
               id="g368"
               clip-path="url(#clipPath362)"><g
                 id="g366"
                 transform="translate(169.6719,230.0117)"><path
                   id="path364"
                   style="fill:#000000;fill-opacity:1;fill-rule:nonzero;stroke:none"
                   d="M 0,0 C 1.181,-0.074 2.284,-0.395 3.348,-0.803 4.406,-1.223 5.413,-1.758 6.355,-2.39 7.298,-3.021 8.176,-3.75 8.965,-4.57 9.747,-5.399 10.46,-6.3 10.974,-7.367 9.884,-6.909 8.928,-6.353 7.982,-5.798 7.044,-5.234 6.136,-4.652 5.241,-4.05 4.346,-3.447 3.463,-2.827 2.587,-2.173 1.715,-1.506 0.838,-0.833 0,0" /></g></g></g></g></g></g><g
       id="g372"><g
         clip-path="url(#clipPath378)"
         id="g374"><g
           id="g380"><g
             id="g382" /><g
             id="g394"><g
               style="opacity:0.10000598"
               id="g392"
               clip-path="url(#clipPath386)"><g
                 id="g390"
                 transform="translate(75.3335,97.4209)"><path
                   id="path388"
                   style="fill:#000000;fill-opacity:1;fill-rule:nonzero;stroke:none"
                   d="m 0,0 c -4.297,-31.42 -12.393,-78.235 -15.667,-97.421 h 12.01 c 4.034,32.585 16.194,127.425 23.053,144.063 7.016,17.017 13.958,20.745 21.627,24.746 1.413,0.736 2.85,1.482 4.316,2.323 4.556,2.608 12.118,7.39 19.828,13.602 C 42.252,78.657 26.516,71.88 18.667,64.112 14.068,59.563 5.333,39 0,0" /></g></g></g></g></g></g></g></svg>